<svg width="1050" height="600" viewBox="0 0 1050 600" fill="none" xmlns="http://www.w3.org/2000/svg">
<g filter="url(#filter0_b_1_39)">
<rect width="1050" height="600" rx="75" fill="rgb(41, 135, 63)"/>
<g opacity="0.7" clip-path="url(#clip0_1_39)">
<path d="M933.802 40.9458H958.108V84.6522H933.802V40.9458Z" fill="#FF6610"/>
<path d="M935.346 62.7991C935.346 53.919 939.512 46.0424 945.917 40.9458C941.21 37.2393 935.269 35 928.787 35C913.431 35 901.008 47.4322 901.008 62.7991C901.008 78.1657 913.431 90.5983 928.787 90.5983C935.268 90.5983 941.21 88.359 945.917 84.6522C939.512 79.6329 935.346 71.6793 935.346 62.7991Z" fill="#FFBB0B"/>
<path d="M990.903 62.7991C990.903 78.1657 978.48 90.5983 963.124 90.5983C956.642 90.5983 950.701 88.359 945.994 84.6522C952.476 79.5559 956.565 71.6793 956.565 62.7991C956.565 53.919 952.398 46.0424 945.994 40.9458C950.701 37.2393 956.642 35 963.124 35C978.48 35 990.903 47.5096 990.903 62.7991Z" fill="#FF0000"/>
</g>
<path d="M329.758 302.594C329.758 304.766 329.297 306.672 328.375 308.312C327.453 309.953 326.102 311.227 324.32 312.133C322.555 313.023 320.461 313.469 318.039 313.469C314.961 313.469 312.477 312.797 310.586 311.453C308.695 310.109 307.5 308.164 307 305.617L311.266 305.125C312.156 308.391 314.445 310.023 318.133 310.023C320.336 310.023 322.094 309.367 323.406 308.055C324.719 306.742 325.375 304.953 325.375 302.688C325.375 300.75 324.727 299.164 323.43 297.93C322.133 296.695 320.398 296.078 318.227 296.078C317.086 296.078 316.023 296.258 315.039 296.617C314.055 296.977 313.07 297.586 312.086 298.445H307.961L309.062 281.383H327.836V284.781H312.953L312.273 294.742C314.102 293.336 316.375 292.633 319.094 292.633C322.281 292.633 324.852 293.555 326.805 295.398C328.773 297.227 329.758 299.625 329.758 302.594ZM354.789 305.523V313H350.57V305.523H335.242V302.242L350.125 281.383H354.789V302.195H359.195V305.523H354.789ZM350.57 285.953L338.852 302.195H350.57V285.953ZM365.336 313V309.602H375.625V285.672C375.047 286.891 373.672 287.953 371.5 288.859C369.344 289.766 367.219 290.219 365.125 290.219V286.75C367.438 286.75 369.617 286.242 371.664 285.227C373.727 284.211 375.164 282.93 375.977 281.383H379.867V309.602H388.141V313H365.336ZM393.859 313V310.258C394.625 308.555 395.812 306.844 397.422 305.125C399.047 303.391 401.25 301.414 404.031 299.195C406.516 297.211 408.305 295.484 409.398 294.016C410.492 292.547 411.039 291.133 411.039 289.773C411.039 288.039 410.5 286.703 409.422 285.766C408.344 284.828 406.805 284.359 404.805 284.359C403.023 284.359 401.578 284.852 400.469 285.836C399.375 286.805 398.727 288.172 398.523 289.938L394.211 289.539C394.523 286.883 395.609 284.781 397.469 283.234C399.328 281.672 401.773 280.891 404.805 280.891C408.133 280.891 410.727 281.641 412.586 283.141C414.445 284.641 415.375 286.766 415.375 289.516C415.375 291.312 414.781 293.109 413.594 294.906C412.406 296.688 410.633 298.516 408.273 300.391C405.055 302.953 402.82 304.844 401.57 306.062C400.336 307.266 399.461 308.438 398.945 309.578H415.891V313H393.859ZM470.102 305.523V313H465.883V305.523H450.555V302.242L465.438 281.383H470.102V302.195H474.508V305.523H470.102ZM465.883 285.953L454.164 302.195H465.883V285.953ZM502.023 284.641C494.633 295.266 490.938 304.719 490.938 313H486.531C486.531 308.891 487.484 304.461 489.391 299.711C491.312 294.945 494.164 289.969 497.945 284.781H480.672V281.383H502.023V284.641ZM531.484 302.547C531.484 305.859 530.531 308.508 528.625 310.492C526.734 312.477 524.133 313.469 520.82 313.469C517.133 313.469 514.297 312.125 512.312 309.438C510.328 306.734 509.336 302.906 509.336 297.953C509.336 292.516 510.367 288.312 512.43 285.344C514.492 282.375 517.398 280.891 521.148 280.891C526.133 280.891 529.273 283.133 530.57 287.617L526.539 288.344C525.711 285.656 523.898 284.312 521.102 284.312C518.711 284.312 516.852 285.398 515.523 287.57C514.195 289.742 513.531 292.789 513.531 296.711C514.297 295.289 515.375 294.211 516.766 293.477C518.156 292.727 519.75 292.352 521.547 292.352C524.547 292.352 526.953 293.281 528.766 295.141C530.578 296.984 531.484 299.453 531.484 302.547ZM527.195 302.734C527.195 300.484 526.594 298.734 525.391 297.484C524.203 296.234 522.586 295.609 520.539 295.609C519.383 295.609 518.289 295.875 517.258 296.406C516.227 296.922 515.414 297.648 514.82 298.586C514.242 299.508 513.953 300.555 513.953 301.727C513.953 304.102 514.578 306.086 515.828 307.68C517.094 309.273 518.711 310.07 520.68 310.07C522.664 310.07 524.242 309.414 525.414 308.102C526.602 306.789 527.195 305 527.195 302.734ZM560.383 302.594C560.383 304.766 559.922 306.672 559 308.312C558.078 309.953 556.727 311.227 554.945 312.133C553.18 313.023 551.086 313.469 548.664 313.469C545.586 313.469 543.102 312.797 541.211 311.453C539.32 310.109 538.125 308.164 537.625 305.617L541.891 305.125C542.781 308.391 545.07 310.023 548.758 310.023C550.961 310.023 552.719 309.367 554.031 308.055C555.344 306.742 556 304.953 556 302.688C556 300.75 555.352 299.164 554.055 297.93C552.758 296.695 551.023 296.078 548.852 296.078C547.711 296.078 546.648 296.258 545.664 296.617C544.68 296.977 543.695 297.586 542.711 298.445H538.586L539.688 281.383H558.461V284.781H543.578L542.898 294.742C544.727 293.336 547 292.633 549.719 292.633C552.906 292.633 555.477 293.555 557.43 295.398C559.398 297.227 560.383 299.625 560.383 302.594ZM617.969 302.547C617.969 305.859 617.016 308.508 615.109 310.492C613.219 312.477 610.617 313.469 607.305 313.469C603.617 313.469 600.781 312.125 598.797 309.438C596.812 306.734 595.82 302.906 595.82 297.953C595.82 292.516 596.852 288.312 598.914 285.344C600.977 282.375 603.883 280.891 607.633 280.891C612.617 280.891 615.758 283.133 617.055 287.617L613.023 288.344C612.195 285.656 610.383 284.312 607.586 284.312C605.195 284.312 603.336 285.398 602.008 287.57C600.68 289.742 600.016 292.789 600.016 296.711C600.781 295.289 601.859 294.211 603.25 293.477C604.641 292.727 606.234 292.352 608.031 292.352C611.031 292.352 613.438 293.281 615.25 295.141C617.062 296.984 617.969 299.453 617.969 302.547ZM613.68 302.734C613.68 300.484 613.078 298.734 611.875 297.484C610.688 296.234 609.07 295.609 607.023 295.609C605.867 295.609 604.773 295.875 603.742 296.406C602.711 296.922 601.898 297.648 601.305 298.586C600.727 299.508 600.438 300.555 600.438 301.727C600.438 304.102 601.062 306.086 602.312 307.68C603.578 309.273 605.195 310.07 607.164 310.07C609.148 310.07 610.727 309.414 611.898 308.102C613.086 306.789 613.68 305 613.68 302.734ZM646.961 297.18C646.961 302.461 645.984 306.5 644.031 309.297C642.094 312.078 639.227 313.469 635.43 313.469C631.633 313.469 628.781 312.086 626.875 309.32C624.969 306.539 624.016 302.492 624.016 297.18C624.016 291.727 624.945 287.648 626.805 284.945C628.664 282.242 631.586 280.891 635.57 280.891C639.461 280.891 642.328 282.258 644.172 284.992C646.031 287.711 646.961 291.773 646.961 297.18ZM642.672 297.18C642.672 292.648 642.117 289.375 641.008 287.359C639.914 285.328 638.102 284.312 635.57 284.312C632.977 284.312 631.109 285.312 629.969 287.312C628.844 289.312 628.281 292.602 628.281 297.18C628.281 301.633 628.852 304.891 629.992 306.953C631.148 309 632.977 310.023 635.477 310.023C637.961 310.023 639.781 308.969 640.938 306.859C642.094 304.75 642.672 301.523 642.672 297.18ZM632.734 299.992V294.156H638.242V299.992H632.734ZM675.578 304.141C675.578 307.016 674.602 309.289 672.648 310.961C670.711 312.633 667.938 313.469 664.328 313.469C660.797 313.469 658.031 312.648 656.031 311.008C654.047 309.367 653.055 307.094 653.055 304.188C653.055 302.172 653.672 300.461 654.906 299.055C656.141 297.633 657.719 296.758 659.641 296.43V296.336C657.891 295.914 656.484 295.023 655.422 293.664C654.359 292.305 653.828 290.75 653.828 289C653.828 287.469 654.258 286.078 655.117 284.828C655.992 283.578 657.219 282.609 658.797 281.922C660.375 281.234 662.188 280.891 664.234 280.891C666.375 280.891 668.242 281.242 669.836 281.945C671.43 282.633 672.648 283.594 673.492 284.828C674.336 286.062 674.758 287.469 674.758 289.047C674.758 290.812 674.219 292.375 673.141 293.734C672.062 295.094 670.648 295.945 668.898 296.289V296.383C670.93 296.711 672.547 297.57 673.75 298.961C674.969 300.336 675.578 302.062 675.578 304.141ZM670.375 289.281C670.375 287.547 669.844 286.242 668.781 285.367C667.734 284.477 666.219 284.031 664.234 284.031C662.312 284.031 660.812 284.477 659.734 285.367C658.672 286.258 658.141 287.562 658.141 289.281C658.141 291.016 658.68 292.359 659.758 293.312C660.836 294.266 662.344 294.742 664.281 294.742C668.344 294.742 670.375 292.922 670.375 289.281ZM671.195 303.742C671.195 301.867 670.586 300.43 669.367 299.43C668.148 298.414 666.438 297.906 664.234 297.906C662.109 297.906 660.438 298.453 659.219 299.547C658.016 300.625 657.414 302.055 657.414 303.836C657.414 305.945 658 307.555 659.172 308.664C660.359 309.758 662.094 310.305 664.375 310.305C666.672 310.305 668.383 309.766 669.508 308.688C670.633 307.609 671.195 305.961 671.195 303.742ZM704.523 302.594C704.523 304.766 704.062 306.672 703.141 308.312C702.219 309.953 700.867 311.227 699.086 312.133C697.32 313.023 695.227 313.469 692.805 313.469C689.727 313.469 687.242 312.797 685.352 311.453C683.461 310.109 682.266 308.164 681.766 305.617L686.031 305.125C686.922 308.391 689.211 310.023 692.898 310.023C695.102 310.023 696.859 309.367 698.172 308.055C699.484 306.742 700.141 304.953 700.141 302.688C700.141 300.75 699.492 299.164 698.195 297.93C696.898 296.695 695.164 296.078 692.992 296.078C691.852 296.078 690.789 296.258 689.805 296.617C688.82 296.977 687.836 297.586 686.852 298.445H682.727L683.828 281.383H702.602V284.781H687.719L687.039 294.742C688.867 293.336 691.141 292.633 693.859 292.633C697.047 292.633 699.617 293.555 701.57 295.398C703.539 297.227 704.523 299.625 704.523 302.594ZM740.102 313V309.602H750.391V285.672C749.812 286.891 748.438 287.953 746.266 288.859C744.109 289.766 741.984 290.219 739.891 290.219V286.75C742.203 286.75 744.383 286.242 746.43 285.227C748.492 284.211 749.93 282.93 750.742 281.383H754.633V309.602H762.906V313H740.102ZM790.305 284.641C782.914 295.266 779.219 304.719 779.219 313H774.812C774.812 308.891 775.766 304.461 777.672 299.711C779.594 294.945 782.445 289.969 786.227 284.781H768.953V281.383H790.305V284.641ZM819.836 304.328C819.836 307.234 818.852 309.484 816.883 311.078C814.914 312.672 812.164 313.469 808.633 313.469C805.289 313.469 802.617 312.711 800.617 311.195C798.617 309.68 797.438 307.453 797.078 304.516L801.438 304.117C802 308.023 804.398 309.977 808.633 309.977C810.758 309.977 812.422 309.484 813.625 308.5C814.844 307.516 815.453 306.078 815.453 304.188C815.453 303.016 815.094 302.031 814.375 301.234C813.672 300.422 812.711 299.805 811.492 299.383C810.273 298.945 808.906 298.727 807.391 298.727H805V295.07H807.297C808.641 295.07 809.867 294.852 810.977 294.414C812.102 293.961 812.984 293.328 813.625 292.516C814.266 291.703 814.586 290.742 814.586 289.633C814.586 287.977 814.062 286.688 813.016 285.766C811.984 284.828 810.445 284.359 808.398 284.359C806.539 284.359 805.031 284.836 803.875 285.789C802.734 286.742 802.07 288.086 801.883 289.82L797.641 289.492C797.953 286.789 799.07 284.68 800.992 283.164C802.93 281.648 805.414 280.891 808.445 280.891C811.758 280.891 814.328 281.625 816.156 283.094C818 284.547 818.922 286.578 818.922 289.188C818.922 291.047 818.305 292.664 817.07 294.039C815.836 295.414 814.148 296.32 812.008 296.758V296.852C814.367 297.117 816.258 297.945 817.68 299.336C819.117 300.727 819.836 302.391 819.836 304.328ZM826.281 313V310.258C827.047 308.555 828.234 306.844 829.844 305.125C831.469 303.391 833.672 301.414 836.453 299.195C838.938 297.211 840.727 295.484 841.82 294.016C842.914 292.547 843.461 291.133 843.461 289.773C843.461 288.039 842.922 286.703 841.844 285.766C840.766 284.828 839.227 284.359 837.227 284.359C835.445 284.359 834 284.852 832.891 285.836C831.797 286.805 831.148 288.172 830.945 289.938L826.633 289.539C826.945 286.883 828.031 284.781 829.891 283.234C831.75 281.672 834.195 280.891 837.227 280.891C840.555 280.891 843.148 281.641 845.008 283.141C846.867 284.641 847.797 286.766 847.797 289.516C847.797 291.312 847.203 293.109 846.016 294.906C844.828 296.688 843.055 298.516 840.695 300.391C837.477 302.953 835.242 304.844 833.992 306.062C832.758 307.266 831.883 308.438 831.367 309.578H848.312V313H826.281Z" fill="url(#paint0_linear_1_39)"/>
<path d="M324.32 312.133L324.388 312.267L324.388 312.267L324.32 312.133ZM307 305.617L306.983 305.468L306.822 305.487L306.853 305.646L307 305.617ZM311.266 305.125L311.41 305.086L311.376 304.961L311.248 304.976L311.266 305.125ZM312.086 298.445V298.595H312.142L312.185 298.558L312.086 298.445ZM307.961 298.445L307.811 298.436L307.801 298.595H307.961V298.445ZM309.062 281.383V281.233H308.922L308.913 281.373L309.062 281.383ZM327.836 281.383H327.986V281.233H327.836V281.383ZM327.836 284.781V284.931H327.986V284.781H327.836ZM312.953 284.781V284.631H312.813L312.803 284.771L312.953 284.781ZM312.273 294.742L312.124 294.732L312.101 295.064L312.365 294.861L312.273 294.742ZM326.805 295.398L326.702 295.508L326.703 295.508L326.805 295.398ZM329.608 302.594C329.608 304.744 329.152 306.624 328.244 308.239L328.506 308.386C329.442 306.72 329.908 304.787 329.908 302.594H329.608ZM328.244 308.239C327.338 309.852 326.009 311.105 324.252 311.999L324.388 312.267C326.194 311.348 327.568 310.054 328.506 308.386L328.244 308.239ZM324.253 311.999C322.512 312.877 320.443 313.319 318.039 313.319V313.619C320.479 313.619 322.597 313.17 324.388 312.267L324.253 311.999ZM318.039 313.319C314.982 313.319 312.531 312.652 310.673 311.331L310.499 311.575C312.422 312.942 314.94 313.619 318.039 313.619V313.319ZM310.673 311.331C308.817 310.012 307.641 308.102 307.147 305.588L306.853 305.646C307.359 308.226 308.573 310.207 310.499 311.575L310.673 311.331ZM307.017 305.766L311.283 305.274L311.248 304.976L306.983 305.468L307.017 305.766ZM311.121 305.164C311.573 306.824 312.385 308.081 313.563 308.921C314.74 309.76 316.267 310.173 318.133 310.173V309.873C316.311 309.873 314.85 309.47 313.737 308.677C312.627 307.884 311.848 306.692 311.41 305.086L311.121 305.164ZM318.133 310.173C320.368 310.173 322.167 309.507 323.512 308.161L323.3 307.949C322.021 309.228 320.304 309.873 318.133 309.873V310.173ZM323.512 308.161C324.859 306.814 325.525 304.984 325.525 302.688H325.225C325.225 304.923 324.579 306.67 323.3 307.949L323.512 308.161ZM325.525 302.688C325.525 300.713 324.862 299.086 323.533 297.821L323.326 298.038C324.591 299.242 325.225 300.787 325.225 302.688H325.525ZM323.533 297.821C322.203 296.555 320.428 295.928 318.227 295.928V296.228C320.369 296.228 322.063 296.836 323.326 298.038L323.533 297.821ZM318.227 295.928C317.07 295.928 315.99 296.11 314.988 296.476L315.091 296.758C316.057 296.405 317.102 296.228 318.227 296.228V295.928ZM314.988 296.476C313.982 296.843 312.982 297.464 311.987 298.332L312.185 298.558C313.158 297.708 314.127 297.11 315.091 296.758L314.988 296.476ZM312.086 298.295H307.961V298.595H312.086V298.295ZM308.111 298.455L309.212 281.392L308.913 281.373L307.811 298.436L308.111 298.455ZM309.062 281.533H327.836V281.233H309.062V281.533ZM327.686 281.383V284.781H327.986V281.383H327.686ZM327.836 284.631H312.953V284.931H327.836V284.631ZM312.803 284.771L312.124 294.732L312.423 294.752L313.103 284.791L312.803 284.771ZM312.365 294.861C314.162 293.478 316.402 292.783 319.094 292.783V292.483C316.348 292.483 314.041 293.193 312.182 294.623L312.365 294.861ZM319.094 292.783C322.251 292.783 324.782 293.695 326.702 295.508L326.908 295.289C324.922 293.415 322.312 292.483 319.094 292.483V292.783ZM326.703 295.508C328.637 297.305 329.608 299.662 329.608 302.594H329.908C329.908 299.588 328.909 297.148 326.907 295.289L326.703 295.508ZM354.789 305.523V305.373H354.639V305.523H354.789ZM354.789 313V313.15H354.939V313H354.789ZM350.57 313H350.42V313.15H350.57V313ZM350.57 305.523H350.72V305.373H350.57V305.523ZM335.242 305.523H335.092V305.673H335.242V305.523ZM335.242 302.242L335.12 302.155L335.092 302.194V302.242H335.242ZM350.125 281.383V281.233H350.048L350.003 281.296L350.125 281.383ZM354.789 281.383H354.939V281.233H354.789V281.383ZM354.789 302.195H354.639V302.345H354.789V302.195ZM359.195 302.195H359.345V302.045H359.195V302.195ZM359.195 305.523V305.673H359.345V305.523H359.195ZM350.57 285.953H350.72V285.489L350.449 285.865L350.57 285.953ZM338.852 302.195L338.73 302.108L338.558 302.345H338.852V302.195ZM350.57 302.195V302.345H350.72V302.195H350.57ZM354.639 305.523V313H354.939V305.523H354.639ZM354.789 312.85H350.57V313.15H354.789V312.85ZM350.72 313V305.523H350.42V313H350.72ZM350.57 305.373H335.242V305.673H350.57V305.373ZM335.392 305.523V302.242H335.092V305.523H335.392ZM335.364 302.329L350.247 281.47L350.003 281.296L335.12 302.155L335.364 302.329ZM350.125 281.533H354.789V281.233H350.125V281.533ZM354.639 281.383V302.195H354.939V281.383H354.639ZM354.789 302.345H359.195V302.045H354.789V302.345ZM359.045 302.195V305.523H359.345V302.195H359.045ZM359.195 305.373H354.789V305.673H359.195V305.373ZM350.449 285.865L338.73 302.108L338.973 302.283L350.692 286.041L350.449 285.865ZM338.852 302.345H350.57V302.045H338.852V302.345ZM350.72 302.195V285.953H350.42V302.195H350.72ZM365.336 313H365.186V313.15H365.336V313ZM365.336 309.602V309.452H365.186V309.602H365.336ZM375.625 309.602V309.752H375.775V309.602H375.625ZM375.625 285.672H375.775L375.489 285.608L375.625 285.672ZM371.5 288.859L371.442 288.721L371.442 288.721L371.5 288.859ZM365.125 290.219H364.975V290.369H365.125V290.219ZM365.125 286.75V286.6H364.975V286.75H365.125ZM371.664 285.227L371.598 285.092L371.597 285.092L371.664 285.227ZM375.977 281.383V281.233H375.886L375.844 281.313L375.977 281.383ZM379.867 281.383H380.017V281.233H379.867V281.383ZM379.867 309.602H379.717V309.752H379.867V309.602ZM388.141 309.602H388.291V309.452H388.141V309.602ZM388.141 313V313.15H388.291V313H388.141ZM365.486 313V309.602H365.186V313H365.486ZM365.336 309.752H375.625V309.452H365.336V309.752ZM375.775 309.602V285.672H375.475V309.602H375.775ZM375.489 285.608C374.935 286.776 373.603 287.819 371.442 288.721L371.558 288.998C373.741 288.087 375.158 287.006 375.761 285.736L375.489 285.608ZM371.442 288.721C369.302 289.621 367.197 290.069 365.125 290.069V290.369C367.241 290.369 369.386 289.911 371.558 288.998L371.442 288.721ZM365.275 290.219V286.75H364.975V290.219H365.275ZM365.125 286.9C367.46 286.9 369.663 286.387 371.731 285.361L371.597 285.092C369.571 286.097 367.415 286.6 365.125 286.6V286.9ZM371.73 285.361C373.812 284.336 375.278 283.035 376.109 281.453L375.844 281.313C375.05 282.824 373.641 284.086 371.598 285.092L371.73 285.361ZM375.977 281.533H379.867V281.233H375.977V281.533ZM379.717 281.383V309.602H380.017V281.383H379.717ZM379.867 309.752H388.141V309.452H379.867V309.752ZM387.991 309.602V313H388.291V309.602H387.991ZM388.141 312.85H365.336V313.15H388.141V312.85ZM393.859 313H393.709V313.15H393.859V313ZM393.859 310.258L393.723 310.196L393.709 310.226V310.258H393.859ZM397.422 305.125L397.312 305.022L397.312 305.022L397.422 305.125ZM404.031 299.195L404.125 299.313L404.125 299.313L404.031 299.195ZM400.469 285.836L400.568 285.948L400.568 285.948L400.469 285.836ZM398.523 289.938L398.51 290.087L398.656 290.1L398.672 289.955L398.523 289.938ZM394.211 289.539L394.062 289.522L394.044 289.674L394.197 289.688L394.211 289.539ZM397.469 283.234L397.565 283.35L397.565 283.349L397.469 283.234ZM413.594 294.906L413.719 294.989L413.719 294.989L413.594 294.906ZM408.273 300.391L408.18 300.273L408.18 300.273L408.273 300.391ZM401.57 306.062L401.675 306.17L401.675 306.17L401.57 306.062ZM398.945 309.578L398.809 309.516L398.713 309.728H398.945V309.578ZM415.891 309.578H416.041V309.428H415.891V309.578ZM415.891 313V313.15H416.041V313H415.891ZM394.009 313V310.258H393.709V313H394.009ZM393.996 310.319C394.754 308.635 395.93 306.937 397.531 305.228L397.312 305.022C395.695 306.75 394.496 308.475 393.723 310.196L393.996 310.319ZM397.531 305.228C399.15 303.5 401.347 301.529 404.125 299.313L403.938 299.078C401.153 301.299 398.944 303.281 397.312 305.022L397.531 305.228ZM404.125 299.313C406.613 297.325 408.414 295.589 409.519 294.105L409.278 293.926C408.196 295.38 406.418 297.097 403.938 299.078L404.125 299.313ZM409.519 294.105C410.625 292.619 411.189 291.175 411.189 289.773H410.889C410.889 291.091 410.359 292.474 409.278 293.926L409.519 294.105ZM411.189 289.773C411.189 288.006 410.638 286.624 409.52 285.652L409.323 285.879C410.362 286.782 410.889 288.072 410.889 289.773H411.189ZM409.52 285.652C408.406 284.683 406.826 284.209 404.805 284.209V284.509C406.783 284.509 408.282 284.973 409.323 285.879L409.52 285.652ZM404.805 284.209C402.994 284.209 401.511 284.71 400.369 285.724L400.568 285.948C401.645 284.993 403.052 284.509 404.805 284.509V284.209ZM400.369 285.724C399.242 286.722 398.581 288.126 398.374 289.92L398.672 289.955C398.872 288.217 399.508 286.887 400.568 285.948L400.369 285.724ZM398.537 289.788L394.225 289.39L394.197 289.688L398.51 290.087L398.537 289.788ZM394.36 289.557C394.668 286.934 395.738 284.869 397.565 283.35L397.373 283.119C395.481 284.693 394.378 286.831 394.062 289.522L394.36 289.557ZM397.565 283.349C399.391 281.815 401.8 281.041 404.805 281.041V280.741C401.747 280.741 399.265 281.529 397.372 283.12L397.565 283.349ZM404.805 281.041C408.112 281.041 410.668 281.786 412.492 283.257L412.68 283.024C410.785 281.495 408.154 280.741 404.805 280.741V281.041ZM412.492 283.257C414.31 284.724 415.225 286.803 415.225 289.516H415.525C415.525 286.728 414.58 284.557 412.68 283.024L412.492 283.257ZM415.225 289.516C415.225 291.278 414.643 293.046 413.469 294.824L413.719 294.989C414.919 293.172 415.525 291.347 415.525 289.516H415.225ZM413.469 294.823C412.293 296.587 410.532 298.404 408.18 300.273L408.367 300.508C410.734 298.627 412.52 296.788 413.719 294.989L413.469 294.823ZM408.18 300.273C404.961 302.836 402.722 304.731 401.466 305.955L401.675 306.17C402.919 304.957 405.148 303.07 408.367 300.508L408.18 300.273ZM401.466 305.955C400.223 307.167 399.334 308.354 398.809 309.516L399.082 309.64C399.588 308.521 400.449 307.365 401.675 306.17L401.466 305.955ZM398.945 309.728H415.891V309.428H398.945V309.728ZM415.741 309.578V313H416.041V309.578H415.741ZM415.891 312.85H393.859V313.15H415.891V312.85ZM470.102 305.523V305.373H469.952V305.523H470.102ZM470.102 313V313.15H470.252V313H470.102ZM465.883 313H465.733V313.15H465.883V313ZM465.883 305.523H466.033V305.373H465.883V305.523ZM450.555 305.523H450.405V305.673H450.555V305.523ZM450.555 302.242L450.433 302.155L450.405 302.194V302.242H450.555ZM465.438 281.383V281.233H465.36L465.315 281.296L465.438 281.383ZM470.102 281.383H470.252V281.233H470.102V281.383ZM470.102 302.195H469.952V302.345H470.102V302.195ZM474.508 302.195H474.658V302.045H474.508V302.195ZM474.508 305.523V305.673H474.658V305.523H474.508ZM465.883 285.953H466.033V285.489L465.761 285.865L465.883 285.953ZM454.164 302.195L454.042 302.108L453.871 302.345H454.164V302.195ZM465.883 302.195V302.345H466.033V302.195H465.883ZM469.952 305.523V313H470.252V305.523H469.952ZM470.102 312.85H465.883V313.15H470.102V312.85ZM466.033 313V305.523H465.733V313H466.033ZM465.883 305.373H450.555V305.673H465.883V305.373ZM450.705 305.523V302.242H450.405V305.523H450.705ZM450.677 302.329L465.56 281.47L465.315 281.296L450.433 302.155L450.677 302.329ZM465.438 281.533H470.102V281.233H465.438V281.533ZM469.952 281.383V302.195H470.252V281.383H469.952ZM470.102 302.345H474.508V302.045H470.102V302.345ZM474.358 302.195V305.523H474.658V302.195H474.358ZM474.508 305.373H470.102V305.673H474.508V305.373ZM465.761 285.865L454.042 302.108L454.286 302.283L466.004 286.041L465.761 285.865ZM454.164 302.345H465.883V302.045H454.164V302.345ZM466.033 302.195V285.953H465.733V302.195H466.033ZM502.023 284.641L502.147 284.726L502.173 284.688V284.641H502.023ZM490.938 313V313.15H491.088V313H490.938ZM486.531 313H486.381V313.15H486.531V313ZM489.391 299.711L489.252 299.655L489.251 299.655L489.391 299.711ZM497.945 284.781L498.067 284.87L498.24 284.631H497.945V284.781ZM480.672 284.781H480.522V284.931H480.672V284.781ZM480.672 281.383V281.233H480.522V281.383H480.672ZM502.023 281.383H502.173V281.233H502.023V281.383ZM501.9 284.555C494.501 295.192 490.787 304.675 490.787 313H491.088C491.088 304.762 494.764 295.339 502.147 284.726L501.9 284.555ZM490.938 312.85H486.531V313.15H490.938V312.85ZM486.681 313C486.681 308.914 487.629 304.503 489.53 299.767L489.251 299.655C487.34 304.419 486.381 308.867 486.381 313H486.681ZM489.53 299.767C491.446 295.015 494.291 290.049 498.067 284.87L497.824 284.693C494.037 289.888 491.179 294.875 489.252 299.655L489.53 299.767ZM497.945 284.631H480.672V284.931H497.945V284.631ZM480.822 284.781V281.383H480.522V284.781H480.822ZM480.672 281.533H502.023V281.233H480.672V281.533ZM501.873 281.383V284.641H502.173V281.383H501.873ZM528.625 310.492L528.517 310.388L528.516 310.389L528.625 310.492ZM512.312 309.438L512.192 309.526L512.192 309.527L512.312 309.438ZM530.57 287.617L530.597 287.765L530.761 287.735L530.714 287.576L530.57 287.617ZM526.539 288.344L526.396 288.388L526.435 288.515L526.566 288.491L526.539 288.344ZM513.531 296.711H513.381L513.663 296.782L513.531 296.711ZM516.766 293.477L516.836 293.609L516.837 293.609L516.766 293.477ZM528.766 295.141L528.658 295.245L528.659 295.246L528.766 295.141ZM525.391 297.484L525.282 297.588L525.283 297.588L525.391 297.484ZM517.258 296.406L517.325 296.54L517.327 296.54L517.258 296.406ZM514.82 298.586L514.694 298.506L514.693 298.506L514.82 298.586ZM515.828 307.68L515.71 307.772L515.711 307.773L515.828 307.68ZM525.414 308.102L525.303 308.001L525.302 308.002L525.414 308.102ZM531.334 302.547C531.334 305.829 530.391 308.437 528.517 310.388L528.733 310.596C530.672 308.578 531.634 305.89 531.634 302.547H531.334ZM528.516 310.389C526.66 312.337 524.101 313.319 520.82 313.319V313.619C524.165 313.619 526.809 312.616 528.734 310.596L528.516 310.389ZM520.82 313.319C517.175 313.319 514.386 311.993 512.433 309.348L512.192 309.527C514.208 312.257 517.091 313.619 520.82 313.619V313.319ZM512.433 309.349C510.475 306.681 509.486 302.889 509.486 297.953H509.186C509.186 302.924 510.181 306.788 512.192 309.526L512.433 309.349ZM509.486 297.953C509.486 292.532 510.515 288.363 512.553 285.429L512.306 285.258C510.22 288.262 509.186 292.5 509.186 297.953H509.486ZM512.553 285.429C514.586 282.503 517.445 281.041 521.148 281.041V280.741C517.351 280.741 514.398 282.247 512.306 285.258L512.553 285.429ZM521.148 281.041C523.618 281.041 525.617 281.596 527.155 282.694C528.692 283.792 529.785 285.442 530.426 287.659L530.714 287.576C530.059 285.308 528.933 283.595 527.329 282.45C525.727 281.306 523.663 280.741 521.148 280.741V281.041ZM530.544 287.47L526.512 288.196L526.566 288.491L530.597 287.765L530.544 287.47ZM526.682 288.3C526.261 286.933 525.586 285.895 524.648 285.2C523.71 284.505 522.524 284.162 521.102 284.162V284.463C522.476 284.463 523.595 284.792 524.469 285.441C525.344 286.089 525.989 287.067 526.396 288.388L526.682 288.3ZM521.102 284.162C518.655 284.162 516.749 285.279 515.395 287.492L515.651 287.649C516.954 285.518 518.767 284.463 521.102 284.463V284.162ZM515.395 287.492C514.047 289.697 513.381 292.775 513.381 296.711H513.681C513.681 292.803 514.343 289.787 515.651 287.649L515.395 287.492ZM513.663 296.782C514.415 295.386 515.472 294.329 516.836 293.609L516.696 293.344C515.278 294.093 514.179 295.192 513.399 296.64L513.663 296.782ZM516.837 293.609C518.203 292.872 519.771 292.502 521.547 292.502V292.202C519.729 292.202 518.11 292.581 516.694 293.345L516.837 293.609ZM521.547 292.502C524.513 292.502 526.878 293.419 528.658 295.245L528.873 295.036C527.028 293.143 524.58 292.202 521.547 292.202V292.502ZM528.659 295.246C530.438 297.056 531.334 299.484 531.334 302.547H531.634C531.634 299.422 530.718 296.913 528.873 295.035L528.659 295.246ZM527.345 302.734C527.345 300.458 526.736 298.666 525.499 297.38L525.283 297.588C526.451 298.803 527.045 300.511 527.045 302.734H527.345ZM525.499 297.381C524.278 296.096 522.619 295.459 520.539 295.459V295.759C522.553 295.759 524.128 296.373 525.282 297.588L525.499 297.381ZM520.539 295.459C519.359 295.459 518.242 295.731 517.189 296.273L517.327 296.54C518.337 296.019 519.407 295.759 520.539 295.759V295.459ZM517.191 296.272C516.136 296.799 515.303 297.544 514.694 298.506L514.947 298.666C515.526 297.753 516.317 297.044 517.325 296.54L517.191 296.272ZM514.693 298.506C514.099 299.454 513.803 300.529 513.803 301.727H514.103C514.103 300.581 514.385 299.562 514.947 298.666L514.693 298.506ZM513.803 301.727C513.803 304.129 514.436 306.148 515.71 307.772L515.946 307.587C514.72 306.024 514.103 304.074 514.103 301.727H513.803ZM515.711 307.773C517.004 309.401 518.663 310.22 520.68 310.22V309.92C518.758 309.92 517.184 309.146 515.946 307.586L515.711 307.773ZM520.68 310.22C522.701 310.22 524.322 309.55 525.526 308.201L525.302 308.002C524.163 309.278 522.627 309.92 520.68 309.92V310.22ZM525.525 308.202C526.744 306.855 527.345 305.026 527.345 302.734H527.045C527.045 304.974 526.459 306.723 525.303 308.001L525.525 308.202ZM554.945 312.133L555.013 312.267L555.013 312.267L554.945 312.133ZM537.625 305.617L537.608 305.468L537.447 305.487L537.478 305.646L537.625 305.617ZM541.891 305.125L542.035 305.086L542.001 304.961L541.873 304.976L541.891 305.125ZM542.711 298.445V298.595H542.767L542.81 298.558L542.711 298.445ZM538.586 298.445L538.436 298.436L538.426 298.595H538.586V298.445ZM539.688 281.383V281.233H539.547L539.538 281.373L539.688 281.383ZM558.461 281.383H558.611V281.233H558.461V281.383ZM558.461 284.781V284.931H558.611V284.781H558.461ZM543.578 284.781V284.631H543.438L543.428 284.771L543.578 284.781ZM542.898 294.742L542.749 294.732L542.726 295.064L542.99 294.861L542.898 294.742ZM557.43 295.398L557.327 295.508L557.328 295.508L557.43 295.398ZM560.233 302.594C560.233 304.744 559.777 306.624 558.869 308.239L559.131 308.386C560.067 306.72 560.533 304.787 560.533 302.594H560.233ZM558.869 308.239C557.963 309.852 556.634 311.105 554.877 311.999L555.013 312.267C556.819 311.348 558.193 310.054 559.131 308.386L558.869 308.239ZM554.878 311.999C553.137 312.877 551.068 313.319 548.664 313.319V313.619C551.104 313.619 553.222 313.17 555.013 312.267L554.878 311.999ZM548.664 313.319C545.607 313.319 543.156 312.652 541.298 311.331L541.124 311.575C543.047 312.942 545.565 313.619 548.664 313.619V313.319ZM541.298 311.331C539.442 310.012 538.266 308.102 537.772 305.588L537.478 305.646C537.984 308.226 539.198 310.207 541.124 311.575L541.298 311.331ZM537.642 305.766L541.908 305.274L541.873 304.976L537.608 305.468L537.642 305.766ZM541.746 305.164C542.198 306.824 543.01 308.081 544.188 308.921C545.365 309.76 546.892 310.173 548.758 310.173V309.873C546.936 309.873 545.475 309.47 544.362 308.677C543.252 307.884 542.473 306.692 542.035 305.086L541.746 305.164ZM548.758 310.173C550.993 310.173 552.792 309.507 554.137 308.161L553.925 307.949C552.646 309.228 550.929 309.873 548.758 309.873V310.173ZM554.137 308.161C555.484 306.814 556.15 304.984 556.15 302.688H555.85C555.85 304.923 555.204 306.67 553.925 307.949L554.137 308.161ZM556.15 302.688C556.15 300.713 555.487 299.086 554.158 297.821L553.951 298.038C555.216 299.242 555.85 300.787 555.85 302.688H556.15ZM554.158 297.821C552.828 296.555 551.053 295.928 548.852 295.928V296.228C550.994 296.228 552.688 296.836 553.951 298.038L554.158 297.821ZM548.852 295.928C547.695 295.928 546.615 296.11 545.613 296.476L545.716 296.758C546.682 296.405 547.727 296.228 548.852 296.228V295.928ZM545.613 296.476C544.607 296.843 543.607 297.464 542.612 298.332L542.81 298.558C543.783 297.708 544.752 297.11 545.716 296.758L545.613 296.476ZM542.711 298.295H538.586V298.595H542.711V298.295ZM538.736 298.455L539.837 281.392L539.538 281.373L538.436 298.436L538.736 298.455ZM539.688 281.533H558.461V281.233H539.688V281.533ZM558.311 281.383V284.781H558.611V281.383H558.311ZM558.461 284.631H543.578V284.931H558.461V284.631ZM543.428 284.771L542.749 294.732L543.048 294.752L543.728 284.791L543.428 284.771ZM542.99 294.861C544.787 293.478 547.027 292.783 549.719 292.783V292.483C546.973 292.483 544.666 293.193 542.807 294.623L542.99 294.861ZM549.719 292.783C552.876 292.783 555.407 293.695 557.327 295.508L557.533 295.289C555.547 293.415 552.937 292.483 549.719 292.483V292.783ZM557.328 295.508C559.262 297.305 560.233 299.662 560.233 302.594H560.533C560.533 299.588 559.534 297.148 557.532 295.289L557.328 295.508ZM615.109 310.492L615.001 310.388L615.001 310.389L615.109 310.492ZM598.797 309.438L598.676 309.526L598.676 309.527L598.797 309.438ZM617.055 287.617L617.081 287.765L617.245 287.735L617.199 287.576L617.055 287.617ZM613.023 288.344L612.88 288.388L612.919 288.515L613.05 288.491L613.023 288.344ZM600.016 296.711H599.866L600.148 296.782L600.016 296.711ZM603.25 293.477L603.32 293.609L603.321 293.609L603.25 293.477ZM615.25 295.141L615.143 295.245L615.143 295.246L615.25 295.141ZM611.875 297.484L611.766 297.588L611.767 297.588L611.875 297.484ZM603.742 296.406L603.809 296.54L603.811 296.54L603.742 296.406ZM601.305 298.586L601.178 298.506L601.178 298.506L601.305 298.586ZM602.312 307.68L602.194 307.772L602.195 307.773L602.312 307.68ZM611.898 308.102L611.787 308.001L611.787 308.002L611.898 308.102ZM617.819 302.547C617.819 305.829 616.875 308.437 615.001 310.388L615.218 310.596C617.156 308.578 618.119 305.89 618.119 302.547H617.819ZM615.001 310.389C613.144 312.337 610.585 313.319 607.305 313.319V313.619C610.649 313.619 613.293 312.616 615.218 310.596L615.001 310.389ZM607.305 313.319C603.659 313.319 600.87 311.993 598.918 309.348L598.676 309.527C600.692 312.257 603.575 313.619 607.305 313.619V313.319ZM598.918 309.349C596.959 306.681 595.97 302.889 595.97 297.953H595.67C595.67 302.924 596.666 306.788 598.676 309.526L598.918 309.349ZM595.97 297.953C595.97 292.532 596.999 288.363 599.037 285.429L598.791 285.258C596.704 288.262 595.67 292.5 595.67 297.953H595.97ZM599.037 285.429C601.07 282.503 603.93 281.041 607.633 281.041V280.741C603.836 280.741 600.883 282.247 598.791 285.258L599.037 285.429ZM607.633 281.041C610.103 281.041 612.101 281.596 613.639 282.694C615.177 283.792 616.27 285.442 616.911 287.659L617.199 287.576C616.543 285.308 615.417 283.595 613.814 282.45C612.211 281.306 610.147 280.741 607.633 280.741V281.041ZM617.028 287.47L612.997 288.196L613.05 288.491L617.081 287.765L617.028 287.47ZM613.167 288.3C612.746 286.933 612.07 285.895 611.132 285.2C610.195 284.505 609.009 284.162 607.586 284.162V284.463C608.96 284.463 610.079 284.792 610.954 285.441C611.828 286.089 612.473 287.067 612.88 288.388L613.167 288.3ZM607.586 284.162C605.139 284.162 603.233 285.279 601.88 287.492L602.136 287.649C603.439 285.518 605.252 284.463 607.586 284.463V284.162ZM601.88 287.492C600.532 289.697 599.866 292.775 599.866 296.711H600.166C600.166 292.803 600.828 289.787 602.136 287.649L601.88 287.492ZM600.148 296.782C600.9 295.386 601.956 294.329 603.32 293.609L603.18 293.344C601.762 294.093 600.663 295.192 599.884 296.64L600.148 296.782ZM603.321 293.609C604.687 292.872 606.256 292.502 608.031 292.502V292.202C606.213 292.202 604.594 292.581 603.179 293.345L603.321 293.609ZM608.031 292.502C610.998 292.502 613.363 293.419 615.143 295.245L615.357 295.036C613.512 293.143 611.065 292.202 608.031 292.202V292.502ZM615.143 295.246C616.923 297.056 617.819 299.484 617.819 302.547H618.119C618.119 299.422 617.202 296.913 615.357 295.035L615.143 295.246ZM613.83 302.734C613.83 300.458 613.22 298.666 611.983 297.38L611.767 297.588C612.936 298.803 613.53 300.511 613.53 302.734H613.83ZM611.984 297.381C610.763 296.096 609.103 295.459 607.023 295.459V295.759C609.038 295.759 610.612 296.373 611.766 297.588L611.984 297.381ZM607.023 295.459C605.843 295.459 604.726 295.731 603.673 296.273L603.811 296.54C604.821 296.019 605.891 295.759 607.023 295.759V295.459ZM603.675 296.272C602.62 296.799 601.787 297.544 601.178 298.506L601.431 298.666C602.01 297.753 602.801 297.044 603.809 296.54L603.675 296.272ZM601.178 298.506C600.583 299.454 600.287 300.529 600.287 301.727H600.588C600.588 300.581 600.87 299.562 601.432 298.666L601.178 298.506ZM600.287 301.727C600.287 304.129 600.92 306.148 602.194 307.772L602.431 307.587C601.205 306.024 600.588 304.074 600.588 301.727H600.287ZM602.195 307.773C603.488 309.401 605.148 310.22 607.164 310.22V309.92C605.243 309.92 603.668 309.146 602.43 307.586L602.195 307.773ZM607.164 310.22C609.185 310.22 610.806 309.55 612.01 308.201L611.787 308.002C610.647 309.278 609.112 309.92 607.164 309.92V310.22ZM612.01 308.202C613.228 306.855 613.83 305.026 613.83 302.734H613.53C613.53 304.974 612.943 306.723 611.787 308.001L612.01 308.202ZM644.031 309.297L643.908 309.211L643.908 309.211L644.031 309.297ZM626.875 309.32L626.751 309.405L626.751 309.405L626.875 309.32ZM644.172 284.992L644.048 285.076L644.048 285.077L644.172 284.992ZM641.008 287.359L640.876 287.43L640.876 287.432L641.008 287.359ZM629.969 287.312L629.838 287.238L629.838 287.239L629.969 287.312ZM629.992 306.953L629.861 307.026L629.862 307.027L629.992 306.953ZM632.734 299.992H632.584V300.142H632.734V299.992ZM632.734 294.156V294.006H632.584V294.156H632.734ZM638.242 294.156H638.392V294.006H638.242V294.156ZM638.242 299.992V300.142H638.392V299.992H638.242ZM646.811 297.18C646.811 302.446 645.837 306.45 643.908 309.211L644.154 309.383C646.132 306.55 647.111 302.476 647.111 297.18H646.811ZM643.908 309.211C642.002 311.947 639.184 313.319 635.43 313.319V313.619C639.269 313.619 642.185 312.209 644.154 309.383L643.908 309.211ZM635.43 313.319C631.675 313.319 628.873 311.954 626.999 309.235L626.751 309.405C628.69 312.217 631.591 313.619 635.43 313.619V313.319ZM626.999 309.236C625.117 306.49 624.166 302.478 624.166 297.18H623.866C623.866 302.506 624.821 306.588 626.751 309.405L626.999 309.236ZM624.166 297.18C624.166 291.739 625.094 287.697 626.928 285.03L626.681 284.86C624.797 287.6 623.866 291.714 623.866 297.18H624.166ZM626.928 285.03C628.753 282.377 631.623 281.041 635.57 281.041V280.741C631.549 280.741 628.575 282.107 626.681 284.86L626.928 285.03ZM635.57 281.041C639.421 281.041 642.237 282.391 644.048 285.076L644.296 284.908C642.419 282.125 639.5 280.741 635.57 280.741V281.041ZM644.048 285.077C645.883 287.759 646.811 291.786 646.811 297.18H647.111C647.111 291.761 646.18 287.663 644.296 284.908L644.048 285.077ZM642.822 297.18C642.822 292.643 642.268 289.337 641.139 287.287L640.876 287.432C641.967 289.413 642.522 292.654 642.522 297.18H642.822ZM641.14 287.288C640.581 286.25 639.835 285.467 638.901 284.943C637.968 284.421 636.856 284.162 635.57 284.162V284.463C636.816 284.463 637.875 284.712 638.755 285.205C639.633 285.697 640.341 286.437 640.876 287.43L641.14 287.288ZM635.57 284.162C632.931 284.162 631.01 285.185 629.838 287.238L630.099 287.387C631.209 285.44 633.022 284.463 635.57 284.463V284.162ZM629.838 287.239C628.693 289.274 628.131 292.597 628.131 297.18H628.431C628.431 292.606 628.994 289.351 630.099 287.386L629.838 287.239ZM628.131 297.18C628.131 301.639 628.701 304.929 629.861 307.026L630.123 306.881C629.002 304.852 628.431 301.626 628.431 297.18H628.131ZM629.862 307.027C631.046 309.124 632.927 310.173 635.477 310.173V309.873C633.026 309.873 631.25 308.876 630.123 306.879L629.862 307.027ZM635.477 310.173C636.74 310.173 637.843 309.905 638.78 309.362C639.717 308.819 640.48 308.007 641.069 306.931L640.806 306.787C640.239 307.821 639.513 308.591 638.63 309.103C637.746 309.615 636.697 309.873 635.477 309.873V310.173ZM641.069 306.931C642.244 304.789 642.822 301.531 642.822 297.18H642.522C642.522 301.516 641.944 304.711 640.806 306.787L641.069 306.931ZM632.884 299.992V294.156H632.584V299.992H632.884ZM632.734 294.306H638.242V294.006H632.734V294.306ZM638.092 294.156V299.992H638.392V294.156H638.092ZM638.242 299.842H632.734V300.142H638.242V299.842ZM672.648 310.961L672.551 310.847L672.55 310.847L672.648 310.961ZM656.031 311.008L655.936 311.123L655.936 311.124L656.031 311.008ZM654.906 299.055L655.019 299.154L655.02 299.153L654.906 299.055ZM659.641 296.43L659.666 296.578L659.791 296.556V296.43H659.641ZM659.641 296.336H659.791V296.218L659.676 296.19L659.641 296.336ZM655.117 284.828L654.994 284.742L654.994 284.743L655.117 284.828ZM669.836 281.945L669.775 282.083L669.777 282.083L669.836 281.945ZM668.898 296.289L668.87 296.142L668.748 296.166V296.289H668.898ZM668.898 296.383H668.748V296.511L668.875 296.531L668.898 296.383ZM673.75 298.961L673.637 299.059L673.638 299.06L673.75 298.961ZM668.781 285.367L668.684 285.481L668.686 285.483L668.781 285.367ZM659.734 285.367L659.639 285.252L659.638 285.252L659.734 285.367ZM669.367 299.43L669.271 299.545L669.272 299.546L669.367 299.43ZM659.219 299.547L659.319 299.659L659.319 299.659L659.219 299.547ZM659.172 308.664L659.069 308.773L659.07 308.774L659.172 308.664ZM675.428 304.141C675.428 306.978 674.467 309.207 672.551 310.847L672.746 311.075C674.737 309.371 675.728 307.054 675.728 304.141H675.428ZM672.55 310.847C670.65 312.488 667.916 313.319 664.328 313.319V313.619C667.959 313.619 670.772 312.778 672.746 311.075L672.55 310.847ZM664.328 313.319C660.819 313.319 658.091 312.504 656.126 310.892L655.936 311.124C657.971 312.793 660.775 313.619 664.328 313.619V313.319ZM656.127 310.892C654.182 309.284 653.205 307.056 653.205 304.188H652.905C652.905 307.132 653.912 309.45 655.936 311.123L656.127 310.892ZM653.205 304.188C653.205 302.205 653.811 300.53 655.019 299.154L654.794 298.956C653.533 300.392 652.905 302.139 652.905 304.188H653.205ZM655.02 299.153C656.23 297.758 657.777 296.9 659.666 296.578L659.615 296.282C657.661 296.616 656.051 297.507 654.793 298.956L655.02 299.153ZM659.791 296.43V296.336H659.491V296.43H659.791ZM659.676 296.19C657.957 295.776 656.581 294.903 655.54 293.572L655.304 293.756C656.388 295.144 657.824 296.052 659.605 296.482L659.676 296.19ZM655.54 293.572C654.498 292.239 653.978 290.717 653.978 289H653.678C653.678 290.783 654.22 292.37 655.304 293.756L655.54 293.572ZM653.978 289C653.978 287.499 654.399 286.138 655.241 284.913L654.994 284.743C654.117 286.018 653.678 287.439 653.678 289H653.978ZM655.24 284.914C656.097 283.69 657.301 282.737 658.857 282.059L658.737 281.784C657.137 282.481 655.887 283.467 654.994 284.742L655.24 284.914ZM658.857 282.059C660.413 281.382 662.204 281.041 664.234 281.041V280.741C662.171 280.741 660.337 281.087 658.737 281.784L658.857 282.059ZM664.234 281.041C666.359 281.041 668.205 281.39 669.775 282.083L669.896 281.808C668.28 281.095 666.391 280.741 664.234 280.741V281.041ZM669.777 282.083C671.348 282.761 672.543 283.705 673.368 284.913L673.616 284.743C672.754 283.482 671.511 282.504 669.895 281.808L669.777 282.083ZM673.368 284.913C674.194 286.121 674.608 287.497 674.608 289.047H674.908C674.908 287.44 674.478 286.004 673.616 284.743L673.368 284.913ZM674.608 289.047C674.608 290.779 674.08 292.309 673.023 293.641L673.258 293.828C674.358 292.441 674.908 290.846 674.908 289.047H674.608ZM673.023 293.641C671.968 294.972 670.586 295.805 668.87 296.142L668.927 296.436C670.711 296.086 672.157 295.216 673.258 293.828L673.023 293.641ZM668.748 296.289V296.383H669.048V296.289H668.748ZM668.875 296.531C670.875 296.854 672.459 297.698 673.637 299.059L673.863 298.863C672.635 297.442 670.984 296.568 668.922 296.235L668.875 296.531ZM673.638 299.06C674.829 300.404 675.428 302.094 675.428 304.141H675.728C675.728 302.031 675.109 300.267 673.862 298.861L673.638 299.06ZM670.525 289.281C670.525 287.515 669.982 286.162 668.877 285.251L668.686 285.483C669.705 286.322 670.225 287.579 670.225 289.281H670.525ZM668.878 285.253C667.795 284.331 666.239 283.881 664.234 283.881V284.181C666.199 284.181 667.674 284.622 668.684 285.481L668.878 285.253ZM664.234 283.881C662.291 283.881 660.752 284.332 659.639 285.252L659.83 285.483C660.873 284.621 662.334 284.181 664.234 284.181V283.881ZM659.638 285.252C658.534 286.178 657.991 287.53 657.991 289.281H658.291C658.291 287.595 658.81 286.338 659.831 285.482L659.638 285.252ZM657.991 289.281C657.991 291.049 658.542 292.437 659.658 293.425L659.857 293.2C658.818 292.281 658.291 290.982 658.291 289.281H657.991ZM659.658 293.425C660.772 294.41 662.32 294.892 664.281 294.892V294.592C662.368 294.592 660.9 294.122 659.857 293.2L659.658 293.425ZM664.281 294.892C666.332 294.892 667.898 294.433 668.952 293.489C670.009 292.541 670.525 291.129 670.525 289.281H670.225C670.225 291.074 669.726 292.392 668.751 293.265C667.774 294.141 666.293 294.592 664.281 294.592V294.892ZM671.345 303.742C671.345 301.832 670.722 300.348 669.462 299.314L669.272 299.546C670.449 300.512 671.045 301.903 671.045 303.742H671.345ZM669.463 299.314C668.209 298.269 666.459 297.756 664.234 297.756V298.056C666.416 298.056 668.088 298.559 669.271 299.545L669.463 299.314ZM664.234 297.756C662.084 297.756 660.372 298.31 659.119 299.435L659.319 299.659C660.503 298.596 662.135 298.056 664.234 298.056V297.756ZM659.119 299.435C657.88 300.545 657.264 302.017 657.264 303.836H657.564C657.564 302.092 658.151 300.705 659.319 299.659L659.119 299.435ZM657.264 303.836C657.264 305.973 657.859 307.627 659.069 308.773L659.275 308.555C658.141 307.482 657.564 305.917 657.564 303.836H657.264ZM659.07 308.774C660.295 309.903 662.072 310.455 664.375 310.455V310.155C662.116 310.155 660.424 309.613 659.273 308.554L659.07 308.774ZM664.375 310.455C666.692 310.455 668.448 309.911 669.612 308.796L669.404 308.579C668.318 309.62 666.651 310.155 664.375 310.155V310.455ZM669.612 308.796C670.777 307.679 671.345 305.984 671.345 303.742H671.045C671.045 305.938 670.489 307.54 669.404 308.579L669.612 308.796ZM699.086 312.133L699.153 312.267L699.154 312.267L699.086 312.133ZM681.766 305.617L681.748 305.468L681.587 305.487L681.618 305.646L681.766 305.617ZM686.031 305.125L686.176 305.086L686.142 304.961L686.014 304.976L686.031 305.125ZM686.852 298.445V298.595H686.908L686.95 298.558L686.852 298.445ZM682.727 298.445L682.577 298.436L682.567 298.595H682.727V298.445ZM683.828 281.383V281.233H683.687L683.678 281.373L683.828 281.383ZM702.602 281.383H702.752V281.233H702.602V281.383ZM702.602 284.781V284.931H702.752V284.781H702.602ZM687.719 284.781V284.631H687.579L687.569 284.771L687.719 284.781ZM687.039 294.742L686.889 294.732L686.867 295.064L687.131 294.861L687.039 294.742ZM701.57 295.398L701.467 295.508L701.468 295.508L701.57 295.398ZM704.373 302.594C704.373 304.744 703.917 306.624 703.01 308.239L703.271 308.386C704.208 306.72 704.673 304.787 704.673 302.594H704.373ZM703.01 308.239C702.103 309.852 700.774 311.105 699.018 311.999L699.154 312.267C700.96 311.348 702.334 310.054 703.271 308.386L703.01 308.239ZM699.018 311.999C697.278 312.877 695.208 313.319 692.805 313.319V313.619C695.245 313.619 697.363 313.17 699.153 312.267L699.018 311.999ZM692.805 313.319C689.748 313.319 687.297 312.652 685.438 311.331L685.265 311.575C687.188 312.942 689.705 313.619 692.805 313.619V313.319ZM685.438 311.331C683.583 310.012 682.406 308.102 681.913 305.588L681.618 305.646C682.125 308.226 683.339 310.207 685.265 311.575L685.438 311.331ZM681.783 305.766L686.048 305.274L686.014 304.976L681.748 305.468L681.783 305.766ZM685.887 305.164C686.339 306.824 687.151 308.081 688.329 308.921C689.506 309.76 691.033 310.173 692.898 310.173V309.873C691.076 309.873 689.615 309.47 688.503 308.677C687.392 307.884 686.614 306.692 686.176 305.086L685.887 305.164ZM692.898 310.173C695.133 310.173 696.932 309.507 698.278 308.161L698.066 307.949C696.787 309.228 695.07 309.873 692.898 309.873V310.173ZM698.278 308.161C699.625 306.814 700.291 304.984 700.291 302.688H699.991C699.991 304.923 699.344 306.67 698.066 307.949L698.278 308.161ZM700.291 302.688C700.291 300.713 699.628 299.086 698.299 297.821L698.092 298.038C699.356 299.242 699.991 300.787 699.991 302.688H700.291ZM698.299 297.821C696.968 296.555 695.194 295.928 692.992 295.928V296.228C695.134 296.228 696.829 296.836 698.092 298.038L698.299 297.821ZM692.992 295.928C691.836 295.928 690.756 296.11 689.753 296.476L689.856 296.758C690.823 296.405 691.868 296.228 692.992 296.228V295.928ZM689.753 296.476C688.748 296.843 687.748 297.464 686.753 298.332L686.95 298.558C687.924 297.708 688.893 297.11 689.856 296.758L689.753 296.476ZM686.852 298.295H682.727V298.595H686.852V298.295ZM682.876 298.455L683.978 281.392L683.678 281.373L682.577 298.436L682.876 298.455ZM683.828 281.533H702.602V281.233H683.828V281.533ZM702.452 281.383V284.781H702.752V281.383H702.452ZM702.602 284.631H687.719V284.931H702.602V284.631ZM687.569 284.771L686.889 294.732L687.189 294.752L687.868 284.791L687.569 284.771ZM687.131 294.861C688.928 293.478 691.168 292.783 693.859 292.783V292.483C691.114 292.483 688.806 293.193 686.948 294.623L687.131 294.861ZM693.859 292.783C697.016 292.783 699.547 293.695 701.467 295.508L701.673 295.289C699.687 293.415 697.078 292.483 693.859 292.483V292.783ZM701.468 295.508C703.403 297.305 704.373 299.662 704.373 302.594H704.673C704.673 299.588 703.675 297.148 701.672 295.289L701.468 295.508ZM740.102 313H739.952V313.15H740.102V313ZM740.102 309.602V309.452H739.952V309.602H740.102ZM750.391 309.602V309.752H750.541V309.602H750.391ZM750.391 285.672H750.541L750.255 285.608L750.391 285.672ZM746.266 288.859L746.208 288.721L746.208 288.721L746.266 288.859ZM739.891 290.219H739.741V290.369H739.891V290.219ZM739.891 286.75V286.6H739.741V286.75H739.891ZM746.43 285.227L746.363 285.092L746.363 285.092L746.43 285.227ZM750.742 281.383V281.233H750.652L750.609 281.313L750.742 281.383ZM754.633 281.383H754.783V281.233H754.633V281.383ZM754.633 309.602H754.483V309.752H754.633V309.602ZM762.906 309.602H763.056V309.452H762.906V309.602ZM762.906 313V313.15H763.056V313H762.906ZM740.252 313V309.602H739.952V313H740.252ZM740.102 309.752H750.391V309.452H740.102V309.752ZM750.541 309.602V285.672H750.241V309.602H750.541ZM750.255 285.608C749.701 286.776 748.369 287.819 746.208 288.721L746.323 288.998C748.506 288.087 749.924 287.006 750.526 285.736L750.255 285.608ZM746.208 288.721C744.068 289.621 741.962 290.069 739.891 290.069V290.369C742.007 290.369 744.151 289.911 746.324 288.998L746.208 288.721ZM740.041 290.219V286.75H739.741V290.219H740.041ZM739.891 286.9C742.226 286.9 744.429 286.387 746.496 285.361L746.363 285.092C744.337 286.097 742.18 286.6 739.891 286.6V286.9ZM746.496 285.361C748.578 284.336 750.044 283.035 750.875 281.453L750.609 281.313C749.816 282.824 748.406 284.086 746.363 285.092L746.496 285.361ZM750.742 281.533H754.633V281.233H750.742V281.533ZM754.483 281.383V309.602H754.783V281.383H754.483ZM754.633 309.752H762.906V309.452H754.633V309.752ZM762.756 309.602V313H763.056V309.602H762.756ZM762.906 312.85H740.102V313.15H762.906V312.85ZM790.305 284.641L790.428 284.726L790.455 284.688V284.641H790.305ZM779.219 313V313.15H779.369V313H779.219ZM774.812 313H774.662V313.15H774.812V313ZM777.672 299.711L777.533 299.655L777.533 299.655L777.672 299.711ZM786.227 284.781L786.348 284.87L786.522 284.631H786.227V284.781ZM768.953 284.781H768.803V284.931H768.953V284.781ZM768.953 281.383V281.233H768.803V281.383H768.953ZM790.305 281.383H790.455V281.233H790.305V281.383ZM790.182 284.555C782.783 295.192 779.069 304.675 779.069 313H779.369C779.369 304.762 783.046 295.339 790.428 284.726L790.182 284.555ZM779.219 312.85H774.812V313.15H779.219V312.85ZM774.963 313C774.963 308.914 775.91 304.503 777.811 299.767L777.533 299.655C775.621 304.419 774.662 308.867 774.662 313H774.963ZM777.811 299.767C779.727 295.015 782.572 290.049 786.348 284.87L786.105 284.693C782.319 289.888 779.46 294.875 777.533 299.655L777.811 299.767ZM786.227 284.631H768.953V284.931H786.227V284.631ZM769.103 284.781V281.383H768.803V284.781H769.103ZM768.953 281.533H790.305V281.233H768.953V281.533ZM790.155 281.383V284.641H790.455V281.383H790.155ZM797.078 304.516L797.064 304.366L796.91 304.38L796.929 304.534L797.078 304.516ZM801.438 304.117L801.586 304.096L801.566 303.955L801.424 303.968L801.438 304.117ZM813.625 308.5L813.531 308.383L813.53 308.384L813.625 308.5ZM814.375 301.234L814.262 301.333L814.264 301.335L814.375 301.234ZM811.492 299.383L811.442 299.524L811.443 299.525L811.492 299.383ZM805 298.727H804.85V298.877H805V298.727ZM805 295.07V294.92H804.85V295.07H805ZM810.977 294.414L811.032 294.554L811.033 294.553L810.977 294.414ZM813.016 285.766L812.915 285.877L812.916 285.878L813.016 285.766ZM803.875 285.789L803.78 285.673L803.779 285.674L803.875 285.789ZM801.883 289.82L801.871 289.97L802.016 289.981L802.032 289.836L801.883 289.82ZM797.641 289.492L797.492 289.475L797.474 289.63L797.629 289.642L797.641 289.492ZM800.992 283.164L800.9 283.046L800.899 283.046L800.992 283.164ZM816.156 283.094L816.062 283.211L816.063 283.212L816.156 283.094ZM812.008 296.758L811.978 296.611L811.858 296.635V296.758H812.008ZM812.008 296.852H811.858V296.986L811.991 297.001L812.008 296.852ZM817.68 299.336L817.575 299.443L817.575 299.444L817.68 299.336ZM819.686 304.328C819.686 307.197 818.717 309.401 816.788 310.962L816.977 311.195C818.987 309.568 819.986 307.272 819.986 304.328H819.686ZM816.788 310.962C814.855 312.527 812.143 313.319 808.633 313.319V313.619C812.185 313.619 814.973 312.817 816.977 311.195L816.788 310.962ZM808.633 313.319C805.311 313.319 802.674 312.566 800.708 311.076L800.527 311.315C802.56 312.856 805.267 313.619 808.633 313.619V313.319ZM800.708 311.076C798.746 309.589 797.582 307.402 797.227 304.497L796.929 304.534C797.293 307.504 798.488 309.77 800.527 311.315L800.708 311.076ZM797.092 304.665L801.451 304.267L801.424 303.968L797.064 304.366L797.092 304.665ZM801.289 304.139C801.574 306.118 802.328 307.622 803.563 308.628C804.798 309.633 806.494 310.127 808.633 310.127V309.827C806.537 309.827 804.917 309.343 803.753 308.395C802.59 307.449 801.863 306.022 801.586 304.096L801.289 304.139ZM808.633 310.127C810.78 310.127 812.482 309.629 813.72 308.616L813.53 308.384C812.362 309.339 810.736 309.827 808.633 309.827V310.127ZM813.719 308.617C814.981 307.598 815.603 306.113 815.603 304.188H815.303C815.303 306.043 814.707 307.433 813.531 308.383L813.719 308.617ZM815.603 304.188C815.603 302.982 815.232 301.961 814.486 301.134L814.264 301.335C814.955 302.102 815.303 303.049 815.303 304.188H815.603ZM814.488 301.136C813.765 300.3 812.78 299.67 811.541 299.241L811.443 299.525C812.642 299.94 813.579 300.544 814.262 301.333L814.488 301.136ZM811.543 299.242C810.305 298.797 808.921 298.577 807.391 298.577V298.877C808.892 298.877 810.242 299.093 811.442 299.524L811.543 299.242ZM807.391 298.577H805V298.877H807.391V298.577ZM805.15 298.727V295.07H804.85V298.727H805.15ZM805 295.22H807.297V294.92H805V295.22ZM807.297 295.22C808.657 295.22 809.903 294.999 811.032 294.554L810.922 294.275C809.832 294.704 808.624 294.92 807.297 294.92V295.22ZM811.033 294.553C812.178 294.092 813.083 293.445 813.743 292.608L813.507 292.423C812.885 293.211 812.025 293.83 810.921 294.275L811.033 294.553ZM813.743 292.608C814.406 291.768 814.736 290.773 814.736 289.633H814.436C814.436 290.711 814.125 291.639 813.507 292.423L813.743 292.608ZM814.736 289.633C814.736 287.942 814.2 286.609 813.115 285.653L812.916 285.878C813.925 286.766 814.436 288.011 814.436 289.633H814.736ZM813.117 285.655C812.047 284.682 810.465 284.209 808.398 284.209V284.509C810.425 284.509 811.922 284.974 812.915 285.877L813.117 285.655ZM808.398 284.209C806.513 284.209 804.969 284.693 803.78 285.673L803.97 285.905C805.094 284.979 806.565 284.509 808.398 284.509V284.209ZM803.779 285.674C802.603 286.656 801.925 288.038 801.734 289.804L802.032 289.836C802.216 288.133 802.865 286.828 803.971 285.904L803.779 285.674ZM801.894 289.671L797.652 289.343L797.629 289.642L801.871 289.97L801.894 289.671ZM797.79 289.509C798.098 286.841 799.198 284.77 801.085 283.282L800.899 283.046C798.942 284.589 797.808 286.737 797.492 289.475L797.79 289.509ZM801.085 283.282C802.99 281.792 805.44 281.041 808.445 281.041V280.741C805.389 280.741 802.869 281.505 800.9 283.046L801.085 283.282ZM808.445 281.041C811.737 281.041 814.27 281.771 816.062 283.211L816.25 282.977C814.386 281.479 811.778 280.741 808.445 280.741V281.041ZM816.063 283.212C817.867 284.633 818.772 286.618 818.772 289.188H819.072C819.072 286.538 818.133 284.461 816.249 282.976L816.063 283.212ZM818.772 289.188C818.772 291.01 818.168 292.592 816.959 293.939L817.182 294.139C818.441 292.737 819.072 291.084 819.072 289.188H818.772ZM816.959 293.939C815.75 295.286 814.093 296.179 811.978 296.611L812.038 296.905C814.204 296.462 815.922 295.542 817.182 294.139L816.959 293.939ZM811.858 296.758V296.852H812.158V296.758H811.858ZM811.991 297.001C814.324 297.263 816.181 298.08 817.575 299.443L817.785 299.229C816.334 297.81 814.411 296.971 812.025 296.703L811.991 297.001ZM817.575 299.444C818.985 300.807 819.686 302.433 819.686 304.328H819.986C819.986 302.349 819.25 300.646 817.784 299.228L817.575 299.444ZM826.281 313H826.131V313.15H826.281V313ZM826.281 310.258L826.144 310.196L826.131 310.226V310.258H826.281ZM829.844 305.125L829.734 305.022L829.734 305.022L829.844 305.125ZM836.453 299.195L836.547 299.313L836.547 299.313L836.453 299.195ZM832.891 285.836L832.99 285.948L832.99 285.948L832.891 285.836ZM830.945 289.938L830.932 290.087L831.078 290.1L831.094 289.955L830.945 289.938ZM826.633 289.539L826.484 289.522L826.466 289.674L826.619 289.688L826.633 289.539ZM829.891 283.234L829.987 283.35L829.987 283.349L829.891 283.234ZM846.016 294.906L846.14 294.989L846.141 294.989L846.016 294.906ZM840.695 300.391L840.602 300.273L840.602 300.273L840.695 300.391ZM833.992 306.062L834.097 306.17L834.097 306.17L833.992 306.062ZM831.367 309.578L831.231 309.516L831.135 309.728H831.367V309.578ZM848.312 309.578H848.463V309.428H848.312V309.578ZM848.312 313V313.15H848.463V313H848.312ZM826.431 313V310.258H826.131V313H826.431ZM826.418 310.319C827.175 308.635 828.352 306.937 829.953 305.228L829.734 305.022C828.116 306.75 826.918 308.475 826.144 310.196L826.418 310.319ZM829.953 305.228C831.571 303.5 833.769 301.529 836.547 299.313L836.36 299.078C833.575 301.299 831.366 303.281 829.734 305.022L829.953 305.228ZM836.547 299.313C839.035 297.325 840.836 295.589 841.941 294.105L841.7 293.926C840.618 295.38 838.84 297.097 836.36 299.078L836.547 299.313ZM841.941 294.105C843.047 292.619 843.611 291.175 843.611 289.773H843.311C843.311 291.091 842.781 292.474 841.7 293.926L841.941 294.105ZM843.611 289.773C843.611 288.006 843.06 286.624 841.942 285.652L841.745 285.879C842.784 286.782 843.311 288.072 843.311 289.773H843.611ZM841.942 285.652C840.828 284.683 839.248 284.209 837.227 284.209V284.509C839.205 284.509 840.704 284.973 841.745 285.879L841.942 285.652ZM837.227 284.209C835.416 284.209 833.933 284.71 832.791 285.724L832.99 285.948C834.067 284.993 835.474 284.509 837.227 284.509V284.209ZM832.791 285.724C831.664 286.722 831.003 288.126 830.796 289.92L831.094 289.955C831.294 288.217 831.93 286.887 832.99 285.948L832.791 285.724ZM830.959 289.788L826.647 289.39L826.619 289.688L830.932 290.087L830.959 289.788ZM826.782 289.557C827.09 286.934 828.16 284.869 829.987 283.35L829.795 283.119C827.903 284.693 826.8 286.831 826.484 289.522L826.782 289.557ZM829.987 283.349C831.813 281.815 834.222 281.041 837.227 281.041V280.741C834.169 280.741 831.687 281.529 829.794 283.12L829.987 283.349ZM837.227 281.041C840.534 281.041 843.09 281.786 844.914 283.257L845.102 283.024C843.207 281.495 840.576 280.741 837.227 280.741V281.041ZM844.914 283.257C846.732 284.724 847.647 286.803 847.647 289.516H847.947C847.947 286.728 847.002 284.557 845.102 283.024L844.914 283.257ZM847.647 289.516C847.647 291.278 847.065 293.046 845.89 294.824L846.141 294.989C847.341 293.172 847.947 291.347 847.947 289.516H847.647ZM845.891 294.823C844.715 296.587 842.954 298.404 840.602 300.273L840.789 300.508C843.156 298.627 844.942 296.788 846.14 294.989L845.891 294.823ZM840.602 300.273C837.383 302.836 835.143 304.731 833.887 305.955L834.097 306.17C835.341 304.957 837.57 303.07 840.789 300.508L840.602 300.273ZM833.887 305.955C832.644 307.167 831.756 308.354 831.231 309.516L831.504 309.64C832.009 308.521 832.871 307.365 834.097 306.17L833.887 305.955ZM831.367 309.728H848.312V309.428H831.367V309.728ZM848.162 309.578V313H848.463V309.578H848.162ZM848.312 312.85H826.281V313.15H848.312V312.85Z" fill="#606060"/>
<g opacity="0.8">
<path d="M149.274 456V433.604H165.345V437.39H154.172V442.769H164.332V446.554H154.172V452.215H166.025V456H149.274ZM187.823 456H182.942L181.415 450.521H173.845L172.317 456H167.42L174.774 433.604H180.485L187.823 456ZM177.63 436.626C177.541 437.091 177.375 437.788 177.132 438.718C176.899 439.636 176.147 442.342 174.874 446.836H180.386C179.091 442.276 178.327 439.548 178.095 438.651C177.873 437.755 177.718 437.08 177.63 436.626ZM207.181 449.509C207.181 451.634 206.367 453.305 204.74 454.522C203.124 455.729 200.872 456.332 197.983 456.332C195.382 456.332 193.263 455.784 191.625 454.688C189.987 453.593 188.936 451.999 188.471 449.907L193.202 449.293C193.457 450.333 193.988 451.158 194.796 451.767C195.604 452.364 196.711 452.663 198.116 452.663C199.577 452.663 200.656 452.431 201.354 451.966C202.062 451.501 202.416 450.776 202.416 449.791C202.416 449.061 202.106 448.446 201.486 447.948C200.867 447.439 199.965 447.041 198.78 446.753C196.401 446.177 194.718 445.679 193.733 445.259C192.759 444.827 191.979 444.346 191.393 443.814C190.806 443.283 190.352 442.663 190.031 441.955C189.721 441.236 189.566 440.433 189.566 439.548C189.566 437.611 190.341 436.078 191.891 434.949C193.451 433.82 195.504 433.256 198.05 433.256C200.529 433.256 202.466 433.748 203.86 434.733C205.255 435.707 206.157 437.224 206.566 439.282L201.818 439.764C201.331 437.738 200.042 436.726 197.95 436.726C196.777 436.726 195.881 436.947 195.261 437.39C194.641 437.821 194.331 438.447 194.331 439.266C194.331 439.808 194.48 440.262 194.779 440.627C195.078 440.981 195.482 441.285 195.991 441.54C196.511 441.784 197.563 442.11 199.146 442.52C201.226 443.029 202.826 443.599 203.943 444.229C205.061 444.849 205.88 445.602 206.4 446.487C206.921 447.373 207.181 448.38 207.181 449.509ZM220.894 446.77V456H216.013V446.77L208.31 433.604H213.439L218.42 443.001L223.467 433.604H228.597L220.894 446.77ZM255.408 444.694C255.408 447.185 255.796 449.105 256.57 450.455C257.345 451.805 258.502 452.48 260.04 452.48C261.833 452.48 263.161 451.13 264.024 448.43L268.557 449.293C267.085 453.986 264.229 456.332 259.99 456.332C256.88 456.332 254.506 455.347 252.868 453.377C251.241 451.396 250.428 448.502 250.428 444.694C250.428 437.069 253.571 433.256 259.857 433.256C261.916 433.256 263.637 433.798 265.021 434.883C266.415 435.967 267.439 437.578 268.092 439.714L263.576 440.81C263.255 439.636 262.774 438.729 262.132 438.087C261.49 437.434 260.754 437.107 259.924 437.107C256.913 437.107 255.408 439.636 255.408 444.694ZM289.923 456H285.042L283.515 450.521H275.944L274.417 456H269.52L276.874 433.604H282.585L289.923 456ZM279.729 436.626C279.641 437.091 279.475 437.788 279.231 438.718C278.999 439.636 278.246 442.342 276.974 446.836H282.485C281.19 442.276 280.427 439.548 280.194 438.651C279.973 437.755 279.818 437.08 279.729 436.626ZM304.798 456L299.983 447.45H297.111V456H292.214V433.604H300.415C303.337 433.604 305.523 434.174 306.973 435.314C308.423 436.454 309.147 438.098 309.147 440.245C309.147 441.761 308.738 443.051 307.919 444.113C307.1 445.176 305.965 445.923 304.516 446.354L310.31 456H304.798ZM304.217 440.444C304.217 439.404 303.874 438.64 303.188 438.153C302.501 437.655 301.406 437.406 299.9 437.406H297.111V443.648H300.033C302.822 443.648 304.217 442.58 304.217 440.444ZM329.435 444.628C329.435 448.28 328.582 451.091 326.878 453.062C325.174 455.021 322.744 456 319.59 456H312.601V433.604H318.594C322.224 433.604 324.936 434.518 326.729 436.344C328.533 438.159 329.435 440.92 329.435 444.628ZM324.504 444.628C324.504 442.116 324.028 440.284 323.076 439.133C322.135 437.971 320.614 437.39 318.511 437.39H317.498V452.215H319.191C322.733 452.215 324.504 449.686 324.504 444.628ZM350.12 449.509C350.12 451.634 349.307 453.305 347.68 454.522C346.064 455.729 343.812 456.332 340.923 456.332C338.322 456.332 336.202 455.784 334.564 454.688C332.926 453.593 331.875 451.999 331.41 449.907L336.142 449.293C336.396 450.333 336.927 451.158 337.735 451.767C338.543 452.364 339.65 452.663 341.056 452.663C342.517 452.663 343.596 452.431 344.293 451.966C345.001 451.501 345.355 450.776 345.355 449.791C345.355 449.061 345.046 448.446 344.426 447.948C343.806 447.439 342.904 447.041 341.72 446.753C339.34 446.177 337.658 445.679 336.673 445.259C335.699 444.827 334.919 444.346 334.332 443.814C333.745 443.283 333.292 442.663 332.971 441.955C332.661 441.236 332.506 440.433 332.506 439.548C332.506 437.611 333.281 436.078 334.83 434.949C336.391 433.82 338.444 433.256 340.989 433.256C343.468 433.256 345.405 433.748 346.8 434.733C348.194 435.707 349.096 437.224 349.506 439.282L344.758 439.764C344.271 437.738 342.981 436.726 340.89 436.726C339.716 436.726 338.82 436.947 338.2 437.39C337.58 437.821 337.271 438.447 337.271 439.266C337.271 439.808 337.42 440.262 337.719 440.627C338.018 440.981 338.422 441.285 338.931 441.54C339.451 441.784 340.502 442.11 342.085 442.52C344.166 443.029 345.765 443.599 346.883 444.229C348.001 444.849 348.82 445.602 349.34 446.487C349.86 447.373 350.12 448.38 350.12 449.509Z" fill="#F5F5F5"/>
<path d="M149.274 456H149.124V456.15H149.274V456ZM149.274 433.604V433.454H149.124V433.604H149.274ZM165.345 433.604H165.495V433.454H165.345V433.604ZM165.345 437.39V437.54H165.495V437.39H165.345ZM154.172 437.39V437.24H154.022V437.39H154.172ZM154.172 442.769H154.022V442.919H154.172V442.769ZM164.332 442.769H164.482V442.619H164.332V442.769ZM164.332 446.554V446.704H164.482V446.554H164.332ZM154.172 446.554V446.404H154.022V446.554H154.172ZM154.172 452.215H154.022V452.365H154.172V452.215ZM166.025 452.215H166.175V452.065H166.025V452.215ZM166.025 456V456.15H166.175V456H166.025ZM149.424 456V433.604H149.124V456H149.424ZM149.274 433.754H165.345V433.454H149.274V433.754ZM165.195 433.604V437.39H165.495V433.604H165.195ZM165.345 437.24H154.172V437.54H165.345V437.24ZM154.022 437.39V442.769H154.322V437.39H154.022ZM154.172 442.919H164.332V442.619H154.172V442.919ZM164.182 442.769V446.554H164.482V442.769H164.182ZM164.332 446.404H154.172V446.704H164.332V446.404ZM154.022 446.554V452.215H154.322V446.554H154.022ZM154.172 452.365H166.025V452.065H154.172V452.365ZM165.875 452.215V456H166.175V452.215H165.875ZM166.025 455.85H149.274V456.15H166.025V455.85ZM187.823 456V456.15H188.03L187.966 455.953L187.823 456ZM182.942 456L182.798 456.04L182.828 456.15H182.942V456ZM181.415 450.521L181.56 450.481L181.529 450.371H181.415V450.521ZM173.845 450.521V450.371H173.731L173.7 450.481L173.845 450.521ZM172.317 456V456.15H172.431L172.462 456.04L172.317 456ZM167.42 456L167.277 455.953L167.213 456.15H167.42V456ZM174.774 433.604V433.454H174.666L174.632 433.558L174.774 433.604ZM180.485 433.604L180.628 433.558L180.594 433.454H180.485V433.604ZM177.63 436.626L177.777 436.597L177.483 436.598L177.63 436.626ZM177.132 438.718L176.987 438.68L176.986 438.681L177.132 438.718ZM174.874 446.836L174.73 446.795L174.676 446.986H174.874V446.836ZM180.386 446.836V446.986H180.584L180.53 446.795L180.386 446.836ZM178.095 438.651L177.949 438.687L177.95 438.689L178.095 438.651ZM187.823 455.85H182.942V456.15H187.823V455.85ZM183.087 455.96L181.56 450.481L181.271 450.562L182.798 456.04L183.087 455.96ZM181.415 450.371H173.845V450.671H181.415V450.371ZM173.7 450.481L172.173 455.96L172.462 456.04L173.989 450.562L173.7 450.481ZM172.317 455.85H167.42V456.15H172.317V455.85ZM167.562 456.047L174.917 433.651L174.632 433.558L167.277 455.953L167.562 456.047ZM174.774 433.754H180.485V433.454H174.774V433.754ZM180.343 433.651L187.681 456.047L187.966 455.953L180.628 433.558L180.343 433.651ZM177.483 436.598C177.395 437.058 177.23 437.751 176.987 438.68L177.277 438.756C177.521 437.825 177.688 437.124 177.777 436.654L177.483 436.598ZM176.986 438.681C176.755 439.597 176.003 442.301 174.73 446.795L175.018 446.877C176.291 442.384 177.044 439.676 177.277 438.755L176.986 438.681ZM174.874 446.986H180.386V446.686H174.874V446.986ZM180.53 446.795C179.235 442.234 178.472 439.508 178.24 438.614L177.95 438.689C178.182 439.588 178.947 442.318 180.241 446.877L180.53 446.795ZM178.24 438.615C178.019 437.719 177.865 437.047 177.777 436.597L177.483 436.655C177.572 437.112 177.728 437.79 177.949 438.687L178.24 438.615ZM204.74 454.522L204.83 454.643L204.83 454.643L204.74 454.522ZM191.625 454.688L191.542 454.813L191.625 454.688ZM188.471 449.907L188.451 449.758L188.289 449.78L188.324 449.94L188.471 449.907ZM193.202 449.293L193.348 449.257L193.316 449.127L193.183 449.144L193.202 449.293ZM194.796 451.767L194.706 451.886L194.707 451.887L194.796 451.767ZM201.354 451.966L201.271 451.84L201.27 451.841L201.354 451.966ZM201.486 447.948L201.391 448.064L201.392 448.065L201.486 447.948ZM198.78 446.753L198.816 446.607L198.816 446.607L198.78 446.753ZM193.733 445.259L193.673 445.396L193.674 445.397L193.733 445.259ZM190.031 441.955L189.893 442.014L189.895 442.017L190.031 441.955ZM191.891 434.949L191.803 434.828L191.802 434.828L191.891 434.949ZM203.86 434.733L203.774 434.856L203.774 434.856L203.86 434.733ZM206.566 439.282L206.582 439.431L206.746 439.415L206.714 439.253L206.566 439.282ZM201.818 439.764L201.673 439.799L201.703 439.926L201.833 439.913L201.818 439.764ZM195.261 437.39L195.346 437.513L195.348 437.512L195.261 437.39ZM194.779 440.627L194.663 440.722L194.665 440.724L194.779 440.627ZM195.991 441.54L195.924 441.674L195.928 441.676L195.991 441.54ZM199.146 442.52L199.108 442.665L199.11 442.665L199.146 442.52ZM203.943 444.229L203.87 444.36L203.871 444.361L203.943 444.229ZM207.031 449.509C207.031 451.589 206.237 453.215 204.65 454.402L204.83 454.643C206.497 453.395 207.331 451.679 207.331 449.509H207.031ZM204.65 454.402C203.07 455.583 200.853 456.182 197.983 456.182V456.482C200.891 456.482 203.179 455.875 204.83 454.643L204.65 454.402ZM197.983 456.182C195.403 456.182 193.315 455.638 191.708 454.564L191.542 454.813C193.211 455.93 195.362 456.482 197.983 456.482V456.182ZM191.708 454.564C190.105 453.492 189.074 451.932 188.617 449.875L188.324 449.94C188.797 452.066 189.869 453.694 191.542 454.813L191.708 454.564ZM188.49 450.056L193.221 449.442L193.183 449.144L188.451 449.758L188.49 450.056ZM193.056 449.329C193.319 450.4 193.868 451.256 194.706 451.886L194.886 451.647C194.108 451.06 193.595 450.266 193.348 449.257L193.056 449.329ZM194.707 451.887C195.549 452.51 196.691 452.813 198.116 452.813V452.513C196.73 452.513 195.659 452.218 194.885 451.646L194.707 451.887ZM198.116 452.813C199.587 452.813 200.703 452.58 201.437 452.091L201.27 451.841C200.61 452.281 199.567 452.513 198.116 452.513V452.813ZM201.436 452.091C202.194 451.594 202.566 450.817 202.566 449.791H202.266C202.266 450.735 201.93 451.408 201.271 451.84L201.436 452.091ZM202.566 449.791C202.566 449.011 202.232 448.355 201.58 447.831L201.392 448.065C201.98 448.538 202.266 449.11 202.266 449.791H202.566ZM201.582 447.832C200.938 447.303 200.012 446.898 198.816 446.607L198.745 446.899C199.918 447.184 200.795 447.575 201.391 448.064L201.582 447.832ZM198.816 446.607C196.436 446.032 194.765 445.536 193.792 445.121L193.674 445.397C194.672 445.823 196.365 446.323 198.745 446.899L198.816 446.607ZM193.794 445.122C192.83 444.694 192.065 444.221 191.493 443.703L191.292 443.926C191.894 444.471 192.689 444.96 193.673 445.396L193.794 445.122ZM191.493 443.703C190.922 443.186 190.48 442.582 190.168 441.893L189.895 442.017C190.224 442.744 190.69 443.381 191.292 443.926L191.493 443.703ZM190.169 441.896C189.868 441.197 189.716 440.416 189.716 439.548H189.416C189.416 440.451 189.575 441.274 189.893 442.014L190.169 441.896ZM189.716 439.548C189.716 437.658 190.469 436.171 191.979 435.07L191.802 434.828C190.214 435.985 189.416 437.564 189.416 439.548H189.716ZM191.979 435.071C193.506 433.965 195.526 433.406 198.05 433.406V433.106C195.483 433.106 193.396 433.675 191.803 434.828L191.979 435.071ZM198.05 433.406C200.511 433.406 202.414 433.895 203.774 434.856L203.947 434.611C202.518 433.602 200.547 433.106 198.05 433.106V433.406ZM203.774 434.856C205.13 435.803 206.015 437.282 206.419 439.311L206.714 439.253C206.298 437.166 205.38 435.611 203.946 434.61L203.774 434.856ZM206.551 439.133L201.803 439.614L201.833 439.913L206.582 439.431L206.551 439.133ZM201.964 439.729C201.715 438.692 201.256 437.899 200.579 437.367C199.901 436.835 199.02 436.576 197.95 436.576V436.876C198.972 436.876 199.782 437.123 200.393 437.603C201.005 438.083 201.435 438.81 201.673 439.799L201.964 439.729ZM197.95 436.576C196.762 436.576 195.829 436.799 195.174 437.268L195.348 437.512C195.932 437.095 196.792 436.876 197.95 436.876V436.576ZM195.175 437.267C194.511 437.729 194.181 438.402 194.181 439.266H194.481C194.481 438.491 194.771 437.914 195.346 437.513L195.175 437.267ZM194.181 439.266C194.181 439.837 194.339 440.326 194.663 440.722L194.895 440.532C194.622 440.197 194.481 439.779 194.481 439.266H194.181ZM194.665 440.724C194.979 441.097 195.401 441.413 195.924 441.674L196.058 441.406C195.563 441.158 195.177 440.866 194.894 440.53L194.665 440.724ZM195.928 441.676C196.462 441.926 197.527 442.256 199.108 442.665L199.183 442.374C197.599 441.964 196.56 441.641 196.055 441.404L195.928 441.676ZM199.11 442.665C201.185 443.173 202.769 443.739 203.87 444.36L204.017 444.099C202.882 443.458 201.268 442.884 199.181 442.374L199.11 442.665ZM203.871 444.361C204.971 444.971 205.767 445.706 206.271 446.563L206.53 446.411C205.993 445.498 205.152 444.728 204.016 444.098L203.871 444.361ZM206.271 446.563C206.776 447.423 207.031 448.404 207.031 449.509H207.331C207.331 448.356 207.065 447.322 206.53 446.411L206.271 446.563ZM220.894 446.77L220.764 446.694L220.744 446.729V446.77H220.894ZM220.894 456V456.15H221.044V456H220.894ZM216.013 456H215.863V456.15H216.013V456ZM216.013 446.77H216.163V446.729L216.142 446.694L216.013 446.77ZM208.31 433.604V433.454H208.048L208.18 433.68L208.31 433.604ZM213.439 433.604L213.572 433.534L213.53 433.454H213.439V433.604ZM218.42 443.001L218.287 443.071L218.419 443.32L218.552 443.072L218.42 443.001ZM223.467 433.604V433.454H223.377L223.335 433.534L223.467 433.604ZM228.597 433.604L228.726 433.68L228.858 433.454H228.597V433.604ZM220.744 446.77V456H221.044V446.77H220.744ZM220.894 455.85H216.013V456.15H220.894V455.85ZM216.163 456V446.77H215.863V456H216.163ZM216.142 446.694L208.439 433.529L208.18 433.68L215.883 446.845L216.142 446.694ZM208.31 433.754H213.439V433.454H208.31V433.754ZM213.307 433.675L218.287 443.071L218.552 442.931L213.572 433.534L213.307 433.675ZM218.552 443.072L223.599 433.675L223.335 433.534L218.288 442.93L218.552 443.072ZM223.467 433.754H228.597V433.454H223.467V433.754ZM228.467 433.529L220.764 446.694L221.023 446.845L228.726 433.68L228.467 433.529ZM264.024 448.43L264.052 448.282L263.922 448.257L263.882 448.384L264.024 448.43ZM268.557 449.293L268.7 449.338L268.75 449.177L268.585 449.146L268.557 449.293ZM252.868 453.377L252.752 453.472L252.753 453.473L252.868 453.377ZM265.021 434.883L264.928 435.001L264.928 435.001L265.021 434.883ZM268.092 439.714L268.127 439.86L268.282 439.822L268.235 439.67L268.092 439.714ZM263.576 440.81L263.431 440.849L263.47 440.99L263.612 440.955L263.576 440.81ZM262.132 438.087L262.025 438.192L262.026 438.193L262.132 438.087ZM255.258 444.694C255.258 447.197 255.647 449.147 256.44 450.53L256.7 450.38C255.944 449.063 255.558 447.173 255.558 444.694H255.258ZM256.44 450.53C257.241 451.926 258.447 452.63 260.04 452.63V452.33C258.556 452.33 257.449 451.685 256.7 450.38L256.44 450.53ZM260.04 452.63C260.979 452.63 261.797 452.275 262.488 451.573C263.174 450.875 263.732 449.838 264.167 448.475L263.882 448.384C263.454 449.722 262.915 450.71 262.274 451.363C261.636 452.011 260.894 452.33 260.04 452.33V452.63ZM263.996 448.577L268.529 449.44L268.585 449.146L264.052 448.282L263.996 448.577ZM268.414 449.248C267.683 451.576 266.615 453.307 265.216 454.456C263.819 455.604 262.08 456.182 259.99 456.182V456.482C262.139 456.482 263.948 455.887 265.406 454.688C266.863 453.491 267.958 451.703 268.7 449.338L268.414 449.248ZM259.99 456.182C256.914 456.182 254.587 455.21 252.984 453.281L252.753 453.473C254.425 455.484 256.846 456.482 259.99 456.482V456.182ZM252.984 453.282C251.388 451.338 250.578 448.483 250.578 444.694H250.278C250.278 448.52 251.095 451.454 252.752 453.472L252.984 453.282ZM250.578 444.694C250.578 440.898 251.361 438.079 252.901 436.211C254.437 434.348 256.746 433.406 259.857 433.406V433.106C256.683 433.106 254.277 434.07 252.669 436.02C251.066 437.965 250.278 440.865 250.278 444.694H250.578ZM259.857 433.406C261.888 433.406 263.575 433.94 264.928 435.001L265.113 434.765C263.699 433.656 261.944 433.106 259.857 433.106V433.406ZM264.928 435.001C266.293 436.062 267.302 437.643 267.948 439.758L268.235 439.67C267.576 437.512 266.537 435.872 265.113 434.764L264.928 435.001ZM268.056 439.568L263.541 440.664L263.612 440.955L268.127 439.86L268.056 439.568ZM263.721 440.77C263.395 439.58 262.903 438.646 262.238 437.981L262.026 438.193C262.644 438.811 263.115 439.693 263.431 440.849L263.721 440.77ZM262.239 437.982C261.572 437.303 260.798 436.957 259.924 436.957V437.257C260.709 437.257 261.408 437.565 262.025 438.192L262.239 437.982ZM259.924 436.957C258.367 436.957 257.189 437.616 256.408 438.927C255.635 440.226 255.258 442.155 255.258 444.694H255.558C255.558 442.175 255.934 440.311 256.666 439.081C257.391 437.863 258.47 437.257 259.924 437.257V436.957ZM289.923 456V456.15H290.13L290.065 455.953L289.923 456ZM285.042 456L284.898 456.04L284.928 456.15H285.042V456ZM283.515 450.521L283.659 450.481L283.629 450.371H283.515V450.521ZM275.944 450.521V450.371H275.83L275.8 450.481L275.944 450.521ZM274.417 456V456.15H274.531L274.561 456.04L274.417 456ZM269.52 456L269.377 455.953L269.312 456.15H269.52V456ZM276.874 433.604V433.454H276.765L276.732 433.558L276.874 433.604ZM282.585 433.604L282.728 433.558L282.694 433.454H282.585V433.604ZM279.729 436.626L279.877 436.597L279.582 436.598L279.729 436.626ZM279.231 438.718L279.086 438.68L279.086 438.681L279.231 438.718ZM276.974 446.836L276.829 446.795L276.775 446.986H276.974V446.836ZM282.485 446.836V446.986H282.684L282.63 446.795L282.485 446.836ZM280.194 438.651L280.049 438.687L280.049 438.689L280.194 438.651ZM289.923 455.85H285.042V456.15H289.923V455.85ZM285.186 455.96L283.659 450.481L283.37 450.562L284.898 456.04L285.186 455.96ZM283.515 450.371H275.944V450.671H283.515V450.371ZM275.8 450.481L274.273 455.96L274.561 456.04L276.089 450.562L275.8 450.481ZM274.417 455.85H269.52V456.15H274.417V455.85ZM269.662 456.047L277.017 433.651L276.732 433.558L269.377 455.953L269.662 456.047ZM276.874 433.754H282.585V433.454H276.874V433.754ZM282.442 433.651L289.78 456.047L290.065 455.953L282.728 433.558L282.442 433.651ZM279.582 436.598C279.495 437.058 279.33 437.751 279.086 438.68L279.377 438.756C279.62 437.825 279.787 437.124 279.877 436.654L279.582 436.598ZM279.086 438.681C278.854 439.597 278.102 442.301 276.829 446.795L277.118 446.877C278.39 442.384 279.144 439.676 279.377 438.755L279.086 438.681ZM276.974 446.986H282.485V446.686H276.974V446.986ZM282.63 446.795C281.334 442.234 280.571 439.508 280.34 438.614L280.049 438.689C280.282 439.588 281.046 442.318 282.341 446.877L282.63 446.795ZM280.34 438.615C280.119 437.719 279.965 437.047 279.877 436.597L279.582 436.655C279.672 437.112 279.827 437.79 280.049 438.687L280.34 438.615ZM304.798 456L304.667 456.074L304.71 456.15H304.798V456ZM299.983 447.45L300.114 447.377L300.071 447.3H299.983V447.45ZM297.111 447.45V447.3H296.961V447.45H297.111ZM297.111 456V456.15H297.261V456H297.111ZM292.214 456H292.064V456.15H292.214V456ZM292.214 433.604V433.454H292.064V433.604H292.214ZM306.973 435.314L307.065 435.197L306.973 435.314ZM304.516 446.354L304.473 446.211L304.287 446.266L304.387 446.432L304.516 446.354ZM310.31 456V456.15H310.575L310.438 455.923L310.31 456ZM303.188 438.153L303.099 438.275L303.101 438.276L303.188 438.153ZM297.111 437.406V437.256H296.961V437.406H297.111ZM297.111 443.648H296.961V443.798H297.111V443.648ZM304.929 455.926L300.114 447.377L299.853 447.524L304.667 456.074L304.929 455.926ZM299.983 447.3H297.111V447.6H299.983V447.3ZM296.961 447.45V456H297.261V447.45H296.961ZM297.111 455.85H292.214V456.15H297.111V455.85ZM292.364 456V433.604H292.064V456H292.364ZM292.214 433.754H300.415V433.454H292.214V433.754ZM300.415 433.754C303.322 433.754 305.468 434.322 306.88 435.432L307.065 435.197C305.578 434.027 303.352 433.454 300.415 433.454V433.754ZM306.88 435.432C308.287 436.539 308.997 438.135 308.997 440.245H309.297C309.297 438.06 308.558 436.37 307.065 435.197L306.88 435.432ZM308.997 440.245C308.997 441.733 308.596 442.989 307.8 444.022L308.038 444.205C308.88 443.113 309.297 441.79 309.297 440.245H308.997ZM307.8 444.022C307.003 445.056 305.897 445.787 304.473 446.211L304.558 446.498C306.034 446.059 307.197 445.295 308.038 444.205L307.8 444.022ZM304.387 446.432L310.181 456.077L310.438 455.923L304.644 446.277L304.387 446.432ZM310.31 455.85H304.798V456.15H310.31V455.85ZM304.367 440.444C304.367 439.368 304.01 438.553 303.274 438.031L303.101 438.276C303.738 438.728 304.067 439.44 304.067 440.444H304.367ZM303.276 438.032C302.551 437.506 301.416 437.256 299.9 437.256V437.556C301.396 437.556 302.452 437.805 303.099 438.275L303.276 438.032ZM299.9 437.256H297.111V437.556H299.9V437.256ZM296.961 437.406V443.648H297.261V437.406H296.961ZM297.111 443.798H300.033V443.498H297.111V443.798ZM300.033 443.798C301.443 443.798 302.527 443.529 303.262 442.966C304.005 442.398 304.367 441.548 304.367 440.444H304.067C304.067 441.477 303.732 442.229 303.08 442.728C302.42 443.234 301.413 443.498 300.033 443.498V443.798ZM326.878 453.062L326.991 453.16L326.991 453.16L326.878 453.062ZM312.601 456H312.451V456.15H312.601V456ZM312.601 433.604V433.454H312.451V433.604H312.601ZM326.729 436.344L326.621 436.449L326.622 436.449L326.729 436.344ZM323.076 439.133L322.96 439.227L322.961 439.228L323.076 439.133ZM317.498 437.39V437.24H317.348V437.39H317.498ZM317.498 452.215H317.348V452.365H317.498V452.215ZM329.285 444.628C329.285 448.259 328.437 451.03 326.764 452.963L326.991 453.16C328.727 451.153 329.585 448.302 329.585 444.628H329.285ZM326.765 452.963C325.095 454.882 322.711 455.85 319.59 455.85V456.15C322.777 456.15 325.252 455.159 326.991 453.16L326.765 452.963ZM319.59 455.85H312.601V456.15H319.59V455.85ZM312.751 456V433.604H312.451V456H312.751ZM312.601 433.754H318.594V433.454H312.601V433.754ZM318.594 433.754C322.201 433.754 324.867 434.662 326.621 436.449L326.836 436.239C325.004 434.374 322.247 433.454 318.594 433.454V433.754ZM326.622 436.449C328.388 438.226 329.285 440.942 329.285 444.628H329.585C329.585 440.898 328.677 438.092 326.835 436.238L326.622 436.449ZM324.654 444.628C324.654 442.102 324.177 440.228 323.192 439.037L322.961 439.228C323.879 440.34 324.354 442.129 324.354 444.628H324.654ZM323.193 439.038C322.213 437.828 320.64 437.24 318.511 437.24V437.54C320.588 437.54 322.058 438.113 322.96 439.227L323.193 439.038ZM318.511 437.24H317.498V437.54H318.511V437.24ZM317.348 437.39V452.215H317.648V437.39H317.348ZM317.498 452.365H319.191V452.065H317.498V452.365ZM319.191 452.365C321.003 452.365 322.381 451.715 323.299 450.404C324.21 449.103 324.654 447.17 324.654 444.628H324.354C324.354 447.144 323.913 449.004 323.053 450.232C322.2 451.45 320.922 452.065 319.191 452.065V452.365ZM347.68 454.522L347.769 454.643L347.77 454.643L347.68 454.522ZM334.564 454.688L334.481 454.813L334.564 454.688ZM331.41 449.907L331.391 449.758L331.228 449.78L331.264 449.94L331.41 449.907ZM336.142 449.293L336.287 449.257L336.255 449.127L336.122 449.144L336.142 449.293ZM337.735 451.767L337.645 451.886L337.646 451.887L337.735 451.767ZM344.293 451.966L344.211 451.84L344.21 451.841L344.293 451.966ZM344.426 447.948L344.331 448.064L344.332 448.065L344.426 447.948ZM341.72 446.753L341.755 446.607L341.755 446.607L341.72 446.753ZM336.673 445.259L336.612 445.396L336.614 445.397L336.673 445.259ZM332.971 441.955L332.833 442.014L332.834 442.017L332.971 441.955ZM334.83 434.949L334.742 434.828L334.742 434.828L334.83 434.949ZM346.8 434.733L346.713 434.856L346.714 434.856L346.8 434.733ZM349.506 439.282L349.521 439.431L349.685 439.415L349.653 439.253L349.506 439.282ZM344.758 439.764L344.612 439.799L344.643 439.926L344.773 439.913L344.758 439.764ZM338.2 437.39L338.286 437.513L338.287 437.512L338.2 437.39ZM337.719 440.627L337.603 440.722L337.604 440.724L337.719 440.627ZM338.931 441.54L338.864 441.674L338.867 441.676L338.931 441.54ZM342.085 442.52L342.047 442.665L342.049 442.665L342.085 442.52ZM346.883 444.229L346.809 444.36L346.81 444.361L346.883 444.229ZM349.97 449.509C349.97 451.589 349.177 453.215 347.59 454.402L347.77 454.643C349.436 453.395 350.27 451.679 350.27 449.509H349.97ZM347.59 454.402C346.009 455.583 343.793 456.182 340.923 456.182V456.482C343.83 456.482 346.119 455.875 347.769 454.643L347.59 454.402ZM340.923 456.182C338.342 456.182 336.254 455.638 334.648 454.564L334.481 454.813C336.151 455.93 338.302 456.482 340.923 456.482V456.182ZM334.648 454.564C333.045 453.492 332.014 451.932 331.557 449.875L331.264 449.94C331.736 452.066 332.808 453.694 334.481 454.813L334.648 454.564ZM331.429 450.056L336.161 449.442L336.122 449.144L331.391 449.758L331.429 450.056ZM335.996 449.329C336.258 450.4 336.808 451.256 337.645 451.886L337.826 451.647C337.047 451.06 336.534 450.266 336.287 449.257L335.996 449.329ZM337.646 451.887C338.488 452.51 339.63 452.813 341.056 452.813V452.513C339.67 452.513 338.598 452.218 337.825 451.646L337.646 451.887ZM341.056 452.813C342.527 452.813 343.642 452.58 344.376 452.091L344.21 451.841C343.549 452.281 342.506 452.513 341.056 452.513V452.813ZM344.375 452.091C345.133 451.594 345.505 450.817 345.505 449.791H345.205C345.205 450.735 344.869 451.408 344.211 451.84L344.375 452.091ZM345.505 449.791C345.505 449.011 345.171 448.355 344.52 447.831L344.332 448.065C344.92 448.538 345.205 449.11 345.205 449.791H345.505ZM344.521 447.832C343.877 447.303 342.951 446.898 341.755 446.607L341.684 446.899C342.857 447.184 343.735 447.575 344.331 448.064L344.521 447.832ZM341.755 446.607C339.376 446.032 337.704 445.536 336.732 445.121L336.614 445.397C337.611 445.823 339.304 446.323 341.684 446.899L341.755 446.607ZM336.734 445.122C335.77 444.694 335.004 444.221 334.433 443.703L334.231 443.926C334.833 444.471 335.628 444.96 336.612 445.396L336.734 445.122ZM334.433 443.703C333.861 443.186 333.42 442.582 333.107 441.893L332.834 442.017C333.164 442.744 333.63 443.381 334.231 443.926L334.433 443.703ZM333.108 441.896C332.808 441.197 332.656 440.416 332.656 439.548H332.356C332.356 440.451 332.514 441.274 332.833 442.014L333.108 441.896ZM332.656 439.548C332.656 437.658 333.408 436.171 334.918 435.07L334.742 434.828C333.153 435.985 332.356 437.564 332.356 439.548H332.656ZM334.918 435.071C336.446 433.965 338.465 433.406 340.989 433.406V433.106C338.422 433.106 336.335 433.675 334.742 434.828L334.918 435.071ZM340.989 433.406C343.451 433.406 345.353 433.895 346.713 434.856L346.886 434.611C345.457 433.602 343.486 433.106 340.989 433.106V433.406ZM346.714 434.856C348.07 435.803 348.955 437.282 349.359 439.311L349.653 439.253C349.238 437.166 348.319 435.611 346.886 434.61L346.714 434.856ZM349.491 439.133L344.743 439.614L344.773 439.913L349.521 439.431L349.491 439.133ZM344.904 439.729C344.654 438.692 344.196 437.899 343.518 437.367C342.841 436.835 341.96 436.576 340.89 436.576V436.876C341.911 436.876 342.721 437.123 343.333 437.603C343.945 438.083 344.374 438.81 344.612 439.799L344.904 439.729ZM340.89 436.576C339.701 436.576 338.769 436.799 338.113 437.268L338.287 437.512C338.871 437.095 339.732 436.876 340.89 436.876V436.576ZM338.114 437.267C337.451 437.729 337.121 438.402 337.121 439.266H337.421C337.421 438.491 337.71 437.914 338.286 437.513L338.114 437.267ZM337.121 439.266C337.121 439.837 337.279 440.326 337.603 440.722L337.835 440.532C337.561 440.197 337.421 439.779 337.421 439.266H337.121ZM337.604 440.724C337.919 441.097 338.34 441.413 338.864 441.674L338.998 441.406C338.503 441.158 338.116 440.866 337.833 440.53L337.604 440.724ZM338.867 441.676C339.402 441.926 340.466 442.256 342.047 442.665L342.123 442.374C340.538 441.964 339.5 441.641 338.994 441.404L338.867 441.676ZM342.049 442.665C344.124 443.173 345.709 443.739 346.809 444.36L346.957 444.099C345.821 443.458 344.207 442.884 342.121 442.374L342.049 442.665ZM346.81 444.361C347.91 444.971 348.707 445.706 349.211 446.563L349.469 446.411C348.932 445.498 348.091 444.728 346.956 444.098L346.81 444.361ZM349.211 446.563C349.716 447.423 349.97 448.404 349.97 449.509H350.27C350.27 448.356 350.004 447.322 349.469 446.411L349.211 446.563Z" fill="#606060"/>
</g>
<g filter="url(#filter1_d_1_39)">
<rect x="147" y="263" width="100" height="75" rx="10" fill="url(#paint1_linear_1_39)"/>
<path d="M178.816 263.5L196.495 279.105M196.495 279.105L213.163 263.5M196.495 279.105V289.677H183.362M147.5 289.677H183.362M183.362 289.677V312.33H147.5H196.495M246.5 312.33H213.163M213.163 312.33V289.677H246.5M213.163 312.33H196.495M196.495 312.33V322.398M196.495 322.398L213.163 337.5M196.495 322.398L178.816 337.5" stroke="url(#paint2_linear_1_39)" stroke-linecap="round"/>
</g>
<path d="M117.395 310L120.93 306.5C120.003 305.585 119.266 304.495 118.763 303.293C118.26 302.091 118.002 300.802 118.002 299.499C118.002 298.196 118.26 296.906 118.763 295.704C119.266 294.502 120.003 293.412 120.93 292.497L117.395 289C116.004 290.372 114.899 292.006 114.145 293.809C113.391 295.612 113.002 297.546 113.002 299.5C113.002 301.454 113.391 303.388 114.145 305.191C114.899 306.993 116.004 308.628 117.395 310ZM110.32 317L113.855 313.5C112.001 311.671 110.528 309.491 109.522 307.088C108.517 304.685 107.999 302.106 107.999 299.501C107.999 296.896 108.517 294.317 109.522 291.914C110.528 289.511 112.001 287.331 113.855 285.502L110.32 282C108.002 284.286 106.16 287.011 104.904 290.015C103.647 293.019 103 296.243 103 299.5C103 302.756 103.647 305.98 104.904 308.985C106.16 311.989 108.002 314.713 110.32 317ZM103.25 324.002L106.785 320.502C104.003 317.759 101.793 314.489 100.284 310.884C98.776 307.278 97.9993 303.409 97.9993 299.501C97.9993 295.593 98.776 291.724 100.284 288.119C101.793 284.513 104.003 281.244 106.785 278.5L103.25 275C100.004 278.201 97.4256 282.016 95.6659 286.222C93.9062 290.428 93 294.942 93 299.501C93 304.061 93.9062 308.575 95.6659 312.781C97.4256 316.987 100.004 320.801 103.25 324.002Z" fill="url(#paint3_linear_1_39)" fill-opacity="0.8"/>
</g>
<defs>
<filter id="filter0_b_1_39" x="-400" y="-400" width="1850" height="1400" filterUnits="userSpaceOnUse" color-interpolation-filters="sRGB">
<feFlood flood-opacity="0" result="BackgroundImageFix"/>
<feGaussianBlur in="BackgroundImageFix" stdDeviation="200"/>
<feComposite in2="SourceAlpha" operator="in" result="effect1_backgroundBlur_1_39"/>
<feBlend mode="normal" in="SourceGraphic" in2="effect1_backgroundBlur_1_39" result="shape"/>
</filter>
<filter id="filter1_d_1_39" x="145" y="262" width="104" height="79" filterUnits="userSpaceOnUse" color-interpolation-filters="sRGB">
<feFlood flood-opacity="0" result="BackgroundImageFix"/>
<feColorMatrix in="SourceAlpha" type="matrix" values="0 0 0 0 0 0 0 0 0 0 0 0 0 0 0 0 0 0 127 0" result="hardAlpha"/>
<feOffset dy="1"/>
<feGaussianBlur stdDeviation="1"/>
<feComposite in2="hardAlpha" operator="out"/>
<feColorMatrix type="matrix" values="0 0 0 0 0 0 0 0 0 0 0 0 0 0 0 0 0 0 0.3 0"/>
<feBlend mode="normal" in2="BackgroundImageFix" result="effect1_dropShadow_1_39"/>
<feBlend mode="normal" in="SourceGraphic" in2="effect1_dropShadow_1_39" result="shape"/>
</filter>
<linearGradient id="paint0_linear_1_39" x1="316" y1="273" x2="870.5" y2="313" gradientUnits="userSpaceOnUse">
<stop offset="0.152163" stop-color="#F5F5F5"/>
<stop offset="0.415067" stop-color="white"/>
<stop offset="0.603578" stop-color="white"/>
<stop offset="0.872385" stop-color="#F5F5F5"/>
</linearGradient>
<linearGradient id="paint1_linear_1_39" x1="149" y1="266.5" x2="246" y2="339.5" gradientUnits="userSpaceOnUse">
<stop stop-color="#E1E1E1"/>
<stop offset="0.357292" stop-color="#F3F3F3"/>
<stop offset="0.633333" stop-color="#F3F3F3"/>
<stop offset="1" stop-color="#E4E4E4"/>
</linearGradient>
<linearGradient id="paint2_linear_1_39" x1="147" y1="263" x2="246" y2="327.5" gradientUnits="userSpaceOnUse">
<stop stop-color="#4A4A4A"/>
<stop offset="0.461458" stop-color="#7B7B7B"/>
<stop offset="1" stop-color="#404040"/>
</linearGradient>
<linearGradient id="paint3_linear_1_39" x1="96.0004" y1="285" x2="121" y2="312" gradientUnits="userSpaceOnUse">
<stop stop-color="#F5F5F5"/>
<stop offset="0.378125" stop-color="#F2F2F2"/>
<stop offset="0.638542" stop-color="#F5F5F5"/>
<stop offset="1" stop-color="#F5F5F5"/>
</linearGradient>
<clipPath id="clip0_1_39">
<rect width="90" height="70" fill="white" transform="translate(901 35)"/>
</clipPath>
</defs>
</svg>
